<?xml version="1.0" encoding="UTF-8"?>
<svg xmlns="http://www.w3.org/2000/svg" xmlns:xlink="http://www.w3.org/1999/xlink" width="657pt" height="366pt" viewBox="0 0 657 366" version="1.1">
<defs>
<g>
<symbol overflow="visible" id="glyph0-0">
<path style="stroke:none;" d="M 1.101563 0 L 1.101563 -5.5 L 5.5 -5.5 L 5.5 0 Z M 1.238281 -0.136719 L 5.363281 -0.136719 L 5.363281 -5.363281 L 1.238281 -5.363281 Z M 1.238281 -0.136719 "/>
</symbol>
<symbol overflow="visible" id="glyph0-1">
<path style="stroke:none;" d="M 0.367188 -3.105469 C 0.363281 -3.847656 0.4375 -4.445313 0.59375 -4.902344 C 0.742188 -5.355469 0.972656 -5.707031 1.277344 -5.953125 C 1.578125 -6.199219 1.957031 -6.320313 2.417969 -6.324219 C 2.753906 -6.320313 3.050781 -6.253906 3.308594 -6.121094 C 3.5625 -5.984375 3.773438 -5.789063 3.9375 -5.53125 C 4.101563 -5.273438 4.230469 -4.960938 4.328125 -4.59375 C 4.421875 -4.226563 4.46875 -3.730469 4.472656 -3.105469 C 4.46875 -2.367188 4.394531 -1.769531 4.242188 -1.316406 C 4.089844 -0.859375 3.863281 -0.507813 3.5625 -0.261719 C 3.257813 -0.015625 2.875 0.105469 2.417969 0.109375 C 1.808594 0.105469 1.332031 -0.109375 0.988281 -0.546875 C 0.570313 -1.066406 0.363281 -1.921875 0.367188 -3.105469 Z M 1.160156 -3.105469 C 1.160156 -2.070313 1.28125 -1.378906 1.523438 -1.039063 C 1.765625 -0.695313 2.0625 -0.527344 2.417969 -0.527344 C 2.773438 -0.527344 3.074219 -0.699219 3.316406 -1.042969 C 3.558594 -1.386719 3.679688 -2.074219 3.679688 -3.105469 C 3.679688 -4.144531 3.558594 -4.832031 3.316406 -5.171875 C 3.074219 -5.511719 2.769531 -5.683594 2.410156 -5.683594 C 2.050781 -5.683594 1.769531 -5.53125 1.558594 -5.234375 C 1.292969 -4.84375 1.160156 -4.136719 1.160156 -3.105469 Z M 1.160156 -3.105469 "/>
</symbol>
<symbol overflow="visible" id="glyph0-2">
<path style="stroke:none;" d="M 0.367188 -1.648438 L 1.175781 -1.71875 C 1.234375 -1.320313 1.375 -1.023438 1.59375 -0.824219 C 1.8125 -0.625 2.078125 -0.527344 2.390625 -0.527344 C 2.761719 -0.527344 3.074219 -0.667969 3.335938 -0.949219 C 3.589844 -1.230469 3.71875 -1.601563 3.722656 -2.066406 C 3.71875 -2.503906 3.59375 -2.851563 3.347656 -3.109375 C 3.097656 -3.363281 2.773438 -3.492188 2.375 -3.492188 C 2.125 -3.492188 1.902344 -3.433594 1.703125 -3.320313 C 1.5 -3.207031 1.34375 -3.0625 1.230469 -2.882813 L 0.503906 -2.976563 L 1.113281 -6.214844 L 4.246094 -6.214844 L 4.246094 -5.472656 L 1.730469 -5.472656 L 1.390625 -3.78125 C 1.765625 -4.039063 2.164063 -4.171875 2.582031 -4.175781 C 3.128906 -4.171875 3.59375 -3.980469 3.972656 -3.605469 C 4.351563 -3.222656 4.539063 -2.734375 4.542969 -2.136719 C 4.539063 -1.5625 4.375 -1.070313 4.042969 -0.65625 C 3.636719 -0.148438 3.085938 0.105469 2.390625 0.109375 C 1.816406 0.105469 1.347656 -0.0507813 0.984375 -0.371094 C 0.621094 -0.691406 0.414063 -1.117188 0.367188 -1.648438 Z M 0.367188 -1.648438 "/>
</symbol>
<symbol overflow="visible" id="glyph0-3">
<path style="stroke:none;" d="M 3.277344 0 L 2.503906 0 L 2.503906 -4.929688 C 2.316406 -4.75 2.074219 -4.574219 1.773438 -4.394531 C 1.46875 -4.214844 1.195313 -4.082031 0.957031 -3.996094 L 0.957031 -4.742188 C 1.386719 -4.941406 1.765625 -5.1875 2.089844 -5.480469 C 2.414063 -5.769531 2.644531 -6.050781 2.78125 -6.324219 L 3.277344 -6.324219 Z M 3.277344 0 "/>
</symbol>
<symbol overflow="visible" id="glyph1-0">
<path style="stroke:none;" d="M 0.777344 -0.777344 L -3.109375 -4.667969 L 0 -7.777344 L 3.890625 -3.890625 Z M 0.777344 -0.972656 L 3.695313 -3.890625 L 0 -7.582031 L -2.917969 -4.667969 Z M 0.777344 -0.972656 "/>
</symbol>
<symbol overflow="visible" id="glyph1-1">
<path style="stroke:none;" d="M 0.457031 -0.457031 L -4 -4.910156 L -3.410156 -5.5 L -1.199219 -3.289063 L -1.195313 -7.710938 L -0.398438 -8.511719 L -0.460938 -4.835938 L 4.136719 -4.136719 L 3.359375 -3.359375 L -0.480469 -4.027344 L -0.5 -2.589844 L 1.046875 -1.046875 Z M 0.457031 -0.457031 "/>
</symbol>
<symbol overflow="visible" id="glyph1-2">
<path style="stroke:none;" d="M 2.523438 -2.523438 L 2.050781 -3 C 2.164063 -2.382813 2.003906 -1.859375 1.574219 -1.429688 C 1.382813 -1.234375 1.167969 -1.089844 0.929688 -1.003906 C 0.691406 -0.910156 0.476563 -0.878906 0.289063 -0.910156 C 0.09375 -0.9375 -0.09375 -1.019531 -0.285156 -1.148438 C -0.414063 -1.234375 -0.59375 -1.390625 -0.828125 -1.625 L -2.828125 -3.625 L -2.28125 -4.171875 L -0.492188 -2.382813 C -0.203125 -2.09375 0 -1.914063 0.117188 -1.839844 C 0.296875 -1.730469 0.480469 -1.6875 0.675781 -1.71875 C 0.863281 -1.742188 1.042969 -1.839844 1.210938 -2.007813 C 1.371094 -2.167969 1.484375 -2.363281 1.546875 -2.59375 C 1.605469 -2.820313 1.589844 -3.035156 1.507813 -3.242188 C 1.421875 -3.445313 1.242188 -3.6875 0.96875 -3.964844 L -0.757813 -5.695313 L -0.210938 -6.242188 L 3.015625 -3.015625 Z M 2.523438 -2.523438 "/>
</symbol>
<symbol overflow="visible" id="glyph1-3">
<path style="stroke:none;" d="M 0.410156 -0.410156 L -2.816406 -3.636719 L -2.324219 -4.128906 L -1.867188 -3.671875 C -1.980469 -4.261719 -1.816406 -4.78125 -1.371094 -5.230469 C -1.175781 -5.421875 -0.960938 -5.566406 -0.726563 -5.660156 C -0.492188 -5.753906 -0.277344 -5.78125 -0.0859375 -5.75 C 0.105469 -5.714844 0.292969 -5.640625 0.484375 -5.519531 C 0.605469 -5.433594 0.792969 -5.265625 1.046875 -5.015625 L 3.03125 -3.03125 L 2.484375 -2.484375 L 0.523438 -4.449219 C 0.296875 -4.667969 0.113281 -4.8125 -0.0390625 -4.882813 C -0.191406 -4.945313 -0.355469 -4.960938 -0.53125 -4.921875 C -0.703125 -4.878906 -0.863281 -4.785156 -1.011719 -4.640625 C -1.242188 -4.40625 -1.367188 -4.128906 -1.390625 -3.8125 C -1.410156 -3.496094 -1.214844 -3.132813 -0.804688 -2.71875 L 0.957031 -0.957031 Z M 0.410156 -0.410156 "/>
</symbol>
<symbol overflow="visible" id="glyph1-4">
<path style="stroke:none;" d="M -0.773438 -1.15625 L -0.316406 -1.78125 C -0.0703125 -1.59375 0.179688 -1.511719 0.433594 -1.535156 C 0.6875 -1.558594 0.9375 -1.695313 1.191406 -1.945313 C 1.4375 -2.195313 1.574219 -2.429688 1.59375 -2.65625 C 1.613281 -2.875 1.554688 -3.058594 1.417969 -3.199219 C 1.292969 -3.320313 1.140625 -3.363281 0.964844 -3.328125 C 0.839844 -3.300781 0.59375 -3.175781 0.222656 -2.957031 C -0.277344 -2.65625 -0.640625 -2.464844 -0.875 -2.382813 C -1.101563 -2.300781 -1.324219 -2.285156 -1.535156 -2.335938 C -1.746094 -2.386719 -1.929688 -2.492188 -2.085938 -2.652344 C -2.230469 -2.792969 -2.328125 -2.957031 -2.386719 -3.148438 C -2.441406 -3.335938 -2.457031 -3.53125 -2.425781 -3.726563 C -2.402344 -3.871094 -2.335938 -4.039063 -2.234375 -4.230469 C -2.128906 -4.421875 -1.996094 -4.601563 -1.828125 -4.769531 C -1.574219 -5.019531 -1.3125 -5.203125 -1.050781 -5.324219 C -0.785156 -5.441406 -0.546875 -5.484375 -0.332031 -5.453125 C -0.113281 -5.417969 0.113281 -5.316406 0.355469 -5.144531 L -0.105469 -4.535156 C -0.292969 -4.675781 -0.492188 -4.734375 -0.703125 -4.714844 C -0.914063 -4.6875 -1.125 -4.570313 -1.339844 -4.359375 C -1.585938 -4.109375 -1.722656 -3.886719 -1.75 -3.695313 C -1.773438 -3.503906 -1.730469 -3.355469 -1.621094 -3.246094 C -1.546875 -3.171875 -1.460938 -3.128906 -1.363281 -3.121094 C -1.257813 -3.101563 -1.140625 -3.121094 -1.007813 -3.183594 C -0.929688 -3.214844 -0.722656 -3.332031 -0.386719 -3.527344 C 0.101563 -3.808594 0.453125 -3.992188 0.675781 -4.082031 C 0.890625 -4.167969 1.109375 -4.191406 1.324219 -4.15625 C 1.535156 -4.113281 1.734375 -4.003906 1.921875 -3.820313 C 2.101563 -3.636719 2.21875 -3.410156 2.277344 -3.144531 C 2.328125 -2.875 2.300781 -2.597656 2.191406 -2.308594 C 2.078125 -2.019531 1.894531 -1.746094 1.644531 -1.496094 C 1.222656 -1.074219 0.816406 -0.84375 0.421875 -0.796875 C 0.03125 -0.75 -0.367188 -0.867188 -0.773438 -1.15625 Z M -0.773438 -1.15625 "/>
</symbol>
<symbol overflow="visible" id="glyph1-5">
<path style="stroke:none;" d="M 1.113281 -2.09375 L 1.675781 -1.6875 C 1.554688 -1.5 1.433594 -1.34375 1.3125 -1.226563 C 1.113281 -1.023438 0.925781 -0.902344 0.757813 -0.859375 C 0.582031 -0.808594 0.421875 -0.8125 0.277344 -0.875 C 0.128906 -0.929688 -0.105469 -1.125 -0.433594 -1.457031 L -2.289063 -3.3125 L -2.691406 -2.910156 L -3.117188 -3.335938 L -2.714844 -3.738281 L -3.515625 -4.535156 L -3.300781 -5.410156 L -2.171875 -4.28125 L -1.621094 -4.832031 L -1.195313 -4.40625 L -1.746094 -3.855469 L 0.140625 -1.96875 C 0.296875 -1.8125 0.40625 -1.71875 0.46875 -1.695313 C 0.53125 -1.667969 0.597656 -1.664063 0.667969 -1.683594 C 0.738281 -1.699219 0.8125 -1.75 0.894531 -1.832031 C 0.953125 -1.890625 1.027344 -1.976563 1.113281 -2.09375 Z M 1.113281 -2.09375 "/>
</symbol>
<symbol overflow="visible" id="glyph1-6">
<path style="stroke:none;" d="M 0.480469 -0.480469 L -3.972656 -4.933594 L -2.292969 -6.613281 C -1.996094 -6.90625 -1.757813 -7.117188 -1.574219 -7.25 C -1.316406 -7.429688 -1.0625 -7.542969 -0.816406 -7.589844 C -0.5625 -7.632813 -0.300781 -7.609375 -0.0273438 -7.519531 C 0.246094 -7.421875 0.492188 -7.265625 0.714844 -7.046875 C 1.089844 -6.664063 1.289063 -6.222656 1.3125 -5.722656 C 1.335938 -5.21875 1.03125 -4.652344 0.402344 -4.023438 L -0.742188 -2.878906 L 1.070313 -1.070313 Z M -1.265625 -3.40625 L -0.117188 -4.558594 C 0.265625 -4.9375 0.464844 -5.277344 0.484375 -5.582031 C 0.5 -5.882813 0.378906 -6.164063 0.125 -6.421875 C -0.0625 -6.605469 -0.265625 -6.714844 -0.496094 -6.757813 C -0.71875 -6.792969 -0.929688 -6.757813 -1.128906 -6.648438 C -1.253906 -6.574219 -1.449219 -6.402344 -1.71875 -6.136719 L -2.859375 -5 Z M -1.265625 -3.40625 "/>
</symbol>
<symbol overflow="visible" id="glyph1-7">
<path style="stroke:none;" d="M -1.40625 -1.820313 C -2.003906 -2.414063 -2.277344 -3.023438 -2.234375 -3.644531 C -2.195313 -4.160156 -1.976563 -4.617188 -1.578125 -5.019531 C -1.132813 -5.460938 -0.625 -5.675781 -0.0546875 -5.667969 C 0.515625 -5.65625 1.054688 -5.398438 1.570313 -4.890625 C 1.984375 -4.472656 2.246094 -4.082031 2.363281 -3.722656 C 2.472656 -3.355469 2.476563 -2.992188 2.375 -2.625 C 2.265625 -2.253906 2.074219 -1.925781 1.792969 -1.648438 C 1.339844 -1.191406 0.828125 -0.972656 0.261719 -0.984375 C -0.304688 -0.996094 -0.859375 -1.273438 -1.40625 -1.820313 Z M -0.84375 -2.382813 C -0.429688 -1.964844 -0.03125 -1.746094 0.351563 -1.722656 C 0.738281 -1.699219 1.066406 -1.824219 1.34375 -2.097656 C 1.609375 -2.367188 1.734375 -2.695313 1.710938 -3.082031 C 1.683594 -3.46875 1.457031 -3.875 1.035156 -4.300781 C 0.632813 -4.699219 0.242188 -4.910156 -0.140625 -4.933594 C -0.527344 -4.957031 -0.855469 -4.832031 -1.128906 -4.566406 C -1.398438 -4.289063 -1.523438 -3.960938 -1.5 -3.578125 C -1.476563 -3.191406 -1.257813 -2.792969 -0.84375 -2.382813 Z M -0.84375 -2.382813 "/>
</symbol>
<symbol overflow="visible" id="glyph1-8">
<path style="stroke:none;" d="M 0.398438 -0.398438 L -4.054688 -4.851563 L -3.507813 -5.398438 L 0.945313 -0.945313 Z M 0.398438 -0.398438 "/>
</symbol>
<symbol overflow="visible" id="glyph1-9">
<path style="stroke:none;" d="M -3.410156 -4.238281 L -4.039063 -4.867188 L -3.492188 -5.414063 L -2.863281 -4.785156 Z M 0.414063 -0.414063 L -2.8125 -3.640625 L -2.265625 -4.1875 L 0.960938 -0.960938 Z M 0.414063 -0.414063 "/>
</symbol>
<symbol overflow="visible" id="glyph1-10">
<path style="stroke:none;" d="M 0.414063 -0.414063 L -4.039063 -4.867188 L -3.492188 -5.414063 L -0.953125 -2.875 L -0.972656 -5.480469 L -0.265625 -6.1875 L -0.300781 -3.757813 L 3.085938 -3.085938 L 2.414063 -2.414063 L -0.304688 -2.996094 L -0.320313 -2.238281 L 0.960938 -0.960938 Z M 0.414063 -0.414063 "/>
</symbol>
<symbol overflow="visible" id="glyph1-11">
<path style="stroke:none;" d="M 0.492188 -0.492188 L -3.960938 -4.945313 L -0.742188 -8.167969 L -0.214844 -7.640625 L -2.847656 -5.011719 L -1.484375 -3.644531 L 0.980469 -6.109375 L 1.503906 -5.585938 L -0.960938 -3.125 L 0.554688 -1.605469 L 3.289063 -4.34375 L 3.816406 -3.816406 Z M 0.492188 -0.492188 "/>
</symbol>
<symbol overflow="visible" id="glyph1-12">
<path style="stroke:none;" d="M 0.046875 -0.046875 L -0.453125 -2.902344 L -3.09375 -3.359375 L -2.410156 -4.042969 L -1.15625 -3.78125 C -0.914063 -3.726563 -0.71875 -3.683594 -0.570313 -3.644531 C -0.609375 -3.867188 -0.648438 -4.066406 -0.679688 -4.246094 L -0.898438 -5.554688 L -0.246094 -6.207031 L 0.15625 -3.574219 L 3.066406 -3.066406 L 2.394531 -2.394531 L 0.730469 -2.734375 L 0.28125 -2.828125 L 0.707031 -0.707031 Z M 0.046875 -0.046875 "/>
</symbol>
<symbol overflow="visible" id="glyph1-13">
<path style="stroke:none;" d="M 2.117188 -2.914063 C 2.082031 -2.535156 2.007813 -2.21875 1.894531 -1.964844 C 1.777344 -1.703125 1.613281 -1.46875 1.402344 -1.253906 C 1.042969 -0.898438 0.683594 -0.710938 0.320313 -0.695313 C -0.0429688 -0.675781 -0.355469 -0.800781 -0.625 -1.074219 C -0.78125 -1.230469 -0.890625 -1.414063 -0.949219 -1.617188 C -1.007813 -1.820313 -1.015625 -2.019531 -0.980469 -2.214844 C -0.941406 -2.410156 -0.871094 -2.597656 -0.769531 -2.785156 C -0.683594 -2.917969 -0.550781 -3.109375 -0.363281 -3.355469 C 0.0234375 -3.84375 0.285156 -4.230469 0.421875 -4.519531 C 0.347656 -4.589844 0.300781 -4.640625 0.28125 -4.664063 C 0.0625 -4.886719 -0.144531 -4.992188 -0.34375 -4.980469 C -0.605469 -4.964844 -0.875 -4.816406 -1.152344 -4.542969 C -1.40625 -4.28125 -1.550781 -4.046875 -1.585938 -3.835938 C -1.613281 -3.621094 -1.542969 -3.371094 -1.378906 -3.085938 L -1.988281 -2.625 C -2.164063 -2.902344 -2.269531 -3.164063 -2.300781 -3.417969 C -2.328125 -3.667969 -2.273438 -3.9375 -2.140625 -4.226563 C -2.003906 -4.507813 -1.800781 -4.792969 -1.523438 -5.074219 C -1.25 -5.347656 -0.992188 -5.539063 -0.757813 -5.648438 C -0.515625 -5.753906 -0.308594 -5.796875 -0.132813 -5.78125 C 0.046875 -5.761719 0.226563 -5.695313 0.410156 -5.582031 C 0.519531 -5.503906 0.695313 -5.34375 0.941406 -5.105469 L 1.671875 -4.375 C 2.175781 -3.863281 2.507813 -3.554688 2.667969 -3.445313 C 2.824219 -3.332031 3 -3.246094 3.195313 -3.195313 L 2.625 -2.625 C 2.453125 -2.679688 2.28125 -2.773438 2.117188 -2.914063 Z M 0.851563 -4.089844 C 0.730469 -3.808594 0.503906 -3.441406 0.164063 -2.988281 C -0.0273438 -2.730469 -0.148438 -2.535156 -0.203125 -2.402344 C -0.253906 -2.269531 -0.265625 -2.136719 -0.238281 -2.007813 C -0.210938 -1.878906 -0.152344 -1.769531 -0.0585938 -1.675781 C 0.0859375 -1.527344 0.261719 -1.460938 0.472656 -1.476563 C 0.679688 -1.488281 0.890625 -1.597656 1.101563 -1.8125 C 1.3125 -2.019531 1.453125 -2.253906 1.523438 -2.511719 C 1.59375 -2.765625 1.589844 -3.011719 1.511719 -3.253906 C 1.445313 -3.433594 1.289063 -3.648438 1.050781 -3.890625 Z M 0.851563 -4.089844 "/>
</symbol>
<symbol overflow="visible" id="glyph1-14">
<path style="stroke:none;" d="M 1.578125 -3.65625 L 2.214844 -4.152344 C 2.457031 -3.730469 2.546875 -3.308594 2.488281 -2.886719 C 2.425781 -2.460938 2.210938 -2.0625 1.839844 -1.691406 C 1.363281 -1.21875 0.839844 -0.988281 0.277344 -1.003906 C -0.289063 -1.015625 -0.832031 -1.285156 -1.359375 -1.8125 C -1.898438 -2.351563 -2.179688 -2.914063 -2.203125 -3.496094 C -2.222656 -4.074219 -2.007813 -4.585938 -1.566406 -5.035156 C -1.128906 -5.464844 -0.628906 -5.671875 -0.0664063 -5.652344 C 0.503906 -5.628906 1.050781 -5.351563 1.582031 -4.820313 C 1.613281 -4.785156 1.660156 -4.734375 1.726563 -4.671875 L -0.679688 -2.265625 C -0.304688 -1.929688 0.0664063 -1.757813 0.433594 -1.753906 C 0.800781 -1.742188 1.117188 -1.875 1.390625 -2.144531 C 1.585938 -2.34375 1.707031 -2.566406 1.746094 -2.816406 C 1.78125 -3.0625 1.722656 -3.34375 1.578125 -3.65625 Z M -1.101563 -2.746094 L 0.703125 -4.546875 C 0.40625 -4.792969 0.132813 -4.925781 -0.117188 -4.953125 C -0.5 -4.984375 -0.828125 -4.863281 -1.109375 -4.589844 C -1.355469 -4.335938 -1.484375 -4.042969 -1.488281 -3.703125 C -1.492188 -3.363281 -1.363281 -3.042969 -1.101563 -2.746094 Z M -1.101563 -2.746094 "/>
</symbol>
<symbol overflow="visible" id="glyph1-15">
<path style="stroke:none;" d=""/>
</symbol>
<symbol overflow="visible" id="glyph1-16">
<path style="stroke:none;" d="M 1.257813 -1.257813 L -4.378906 -4.53125 L -3.773438 -5.136719 L -0.175781 -2.890625 C 0.199219 -2.65625 0.5625 -2.417969 0.921875 -2.167969 C 0.554688 -2.757813 0.347656 -3.097656 0.300781 -3.191406 L -1.859375 -7.050781 L -1.148438 -7.761719 L 1.742188 -6.144531 C 2.460938 -5.742188 3.105469 -5.332031 3.667969 -4.914063 C 3.441406 -5.25 3.191406 -5.648438 2.917969 -6.105469 L 0.757813 -9.664063 L 1.347656 -10.257813 L 4.582031 -4.582031 L 4.011719 -4.011719 L -0.320313 -6.46875 C -0.679688 -6.671875 -0.898438 -6.796875 -0.980469 -6.851563 C -0.820313 -6.597656 -0.691406 -6.382813 -0.589844 -6.199219 L 1.859375 -1.859375 Z M 1.257813 -1.257813 "/>
</symbol>
<symbol overflow="visible" id="glyph1-17">
<path style="stroke:none;" d="M 1.332031 -3.699219 L 1.941406 -4.164063 C 2.25 -3.730469 2.390625 -3.289063 2.359375 -2.84375 C 2.324219 -2.390625 2.132813 -1.988281 1.785156 -1.636719 C 1.339844 -1.191406 0.839844 -0.980469 0.285156 -1.003906 C -0.273438 -1.019531 -0.820313 -1.300781 -1.359375 -1.84375 C -1.703125 -2.191406 -1.949219 -2.554688 -2.097656 -2.929688 C -2.242188 -3.304688 -2.261719 -3.675781 -2.160156 -4.046875 C -2.054688 -4.410156 -1.863281 -4.730469 -1.585938 -5.011719 C -1.230469 -5.359375 -0.855469 -5.558594 -0.457031 -5.605469 C -0.0585938 -5.648438 0.332031 -5.539063 0.722656 -5.28125 L 0.273438 -4.667969 C 0.00390625 -4.832031 -0.246094 -4.90625 -0.484375 -4.886719 C -0.71875 -4.867188 -0.929688 -4.765625 -1.113281 -4.585938 C -1.386719 -4.308594 -1.511719 -3.984375 -1.488281 -3.617188 C -1.464844 -3.242188 -1.238281 -2.84375 -0.8125 -2.421875 C -0.375 -1.984375 0.0195313 -1.753906 0.382813 -1.722656 C 0.742188 -1.691406 1.058594 -1.808594 1.328125 -2.082031 C 1.539063 -2.292969 1.652344 -2.539063 1.667969 -2.816406 C 1.679688 -3.089844 1.566406 -3.382813 1.332031 -3.699219 Z M 1.332031 -3.699219 "/>
</symbol>
<symbol overflow="visible" id="glyph1-18">
<path style="stroke:none;" d="M 0.410156 -0.410156 L -4.042969 -4.863281 L -3.496094 -5.410156 L -1.898438 -3.8125 C -1.9375 -4.363281 -1.761719 -4.832031 -1.375 -5.222656 C -1.136719 -5.457031 -0.882813 -5.617188 -0.613281 -5.703125 C -0.339844 -5.78125 -0.0859375 -5.777344 0.15625 -5.691406 C 0.394531 -5.597656 0.671875 -5.394531 0.992188 -5.082031 L 3.039063 -3.039063 L 2.492188 -2.492188 L 0.445313 -4.535156 C 0.171875 -4.808594 -0.0859375 -4.945313 -0.328125 -4.953125 C -0.570313 -4.957031 -0.800781 -4.855469 -1.019531 -4.640625 C -1.179688 -4.476563 -1.289063 -4.28125 -1.347656 -4.054688 C -1.40625 -3.828125 -1.394531 -3.609375 -1.3125 -3.40625 C -1.226563 -3.199219 -1.058594 -2.972656 -0.808594 -2.722656 L 0.957031 -0.957031 Z M 0.410156 -0.410156 "/>
</symbol>
<symbol overflow="visible" id="glyph1-19">
<path style="stroke:none;" d="M 0.539063 -0.539063 L -2.261719 -3.34375 L -2.742188 -2.859375 L -3.167969 -3.285156 L -2.6875 -3.765625 L -3.027344 -4.109375 C -3.242188 -4.324219 -3.382813 -4.507813 -3.453125 -4.652344 C -3.539063 -4.847656 -3.5625 -5.054688 -3.519531 -5.273438 C -3.472656 -5.492188 -3.332031 -5.722656 -3.097656 -5.964844 C -2.9375 -6.117188 -2.75 -6.269531 -2.53125 -6.421875 L -2.136719 -5.859375 C -2.265625 -5.765625 -2.382813 -5.667969 -2.488281 -5.570313 C -2.652344 -5.402344 -2.734375 -5.25 -2.734375 -5.109375 C -2.730469 -4.96875 -2.632813 -4.800781 -2.441406 -4.609375 L -2.140625 -4.3125 L -1.511719 -4.941406 L -1.085938 -4.515625 L -1.714844 -3.886719 L 1.085938 -1.085938 Z M 0.539063 -0.539063 "/>
</symbol>
<symbol overflow="visible" id="glyph1-20">
<path style="stroke:none;" d="M 0.460938 -0.460938 L -3.992188 -4.917969 L -3.105469 -5.804688 L 1.101563 -3.703125 C 1.492188 -3.507813 1.78125 -3.359375 1.976563 -3.257813 C 1.859375 -3.46875 1.699219 -3.785156 1.496094 -4.207031 L -0.535156 -8.375 L 0.257813 -9.167969 L 4.710938 -4.710938 L 4.144531 -4.144531 L 0.417969 -7.871094 L 2.851563 -2.851563 L 2.316406 -2.316406 L -2.761719 -4.820313 L 1.03125 -1.03125 Z M 0.460938 -0.460938 "/>
</symbol>
<symbol overflow="visible" id="glyph1-21">
<path style="stroke:none;" d="M 2.503906 -2.503906 L 2.097656 -2.910156 C 2.210938 -2.382813 2.070313 -1.921875 1.675781 -1.527344 C 1.417969 -1.265625 1.109375 -1.101563 0.75 -1.03125 C 0.390625 -0.957031 0.0273438 -0.988281 -0.34375 -1.125 C -0.714844 -1.257813 -1.066406 -1.488281 -1.398438 -1.824219 C -1.714844 -2.140625 -1.953125 -2.488281 -2.109375 -2.859375 C -2.265625 -3.226563 -2.304688 -3.585938 -2.230469 -3.945313 C -2.15625 -4.296875 -1.988281 -4.609375 -1.722656 -4.875 C -1.527344 -5.070313 -1.3125 -5.203125 -1.078125 -5.273438 C -0.84375 -5.34375 -0.613281 -5.359375 -0.390625 -5.324219 L -1.988281 -6.921875 L -1.441406 -7.464844 L 3.011719 -3.011719 Z M -0.835938 -2.386719 C -0.417969 -1.96875 -0.0234375 -1.746094 0.351563 -1.71875 C 0.730469 -1.6875 1.039063 -1.792969 1.277344 -2.03125 C 1.511719 -2.265625 1.613281 -2.566406 1.589844 -2.929688 C 1.558594 -3.292969 1.347656 -3.675781 0.949219 -4.078125 C 0.503906 -4.515625 0.0976563 -4.753906 -0.277344 -4.792969 C -0.652344 -4.828125 -0.96875 -4.722656 -1.21875 -4.476563 C -1.460938 -4.230469 -1.5625 -3.925781 -1.527344 -3.566406 C -1.492188 -3.203125 -1.261719 -2.808594 -0.835938 -2.386719 Z M -0.835938 -2.386719 "/>
</symbol>
<symbol overflow="visible" id="glyph1-22">
<path style="stroke:none;" d="M 0.816406 -4.3125 L 0.292969 -4.835938 L 2.179688 -6.722656 L 3.832031 -5.070313 C 3.769531 -4.546875 3.640625 -4.074219 3.453125 -3.652344 C 3.257813 -3.222656 3.003906 -2.851563 2.683594 -2.53125 C 2.246094 -2.09375 1.753906 -1.789063 1.207031 -1.617188 C 0.660156 -1.445313 0.121094 -1.445313 -0.414063 -1.621094 C -0.949219 -1.789063 -1.4375 -2.09375 -1.875 -2.535156 C -2.304688 -2.96875 -2.617188 -3.464844 -2.816406 -4.023438 C -3.007813 -4.578125 -3.027344 -5.117188 -2.871094 -5.640625 C -2.710938 -6.160156 -2.410156 -6.644531 -1.96875 -7.089844 C -1.644531 -7.410156 -1.300781 -7.648438 -0.9375 -7.808594 C -0.570313 -7.960938 -0.222656 -8.019531 0.109375 -7.984375 C 0.441406 -7.941406 0.796875 -7.8125 1.175781 -7.59375 L 0.789063 -6.914063 C 0.492188 -7.074219 0.230469 -7.167969 0.00390625 -7.199219 C -0.222656 -7.226563 -0.464844 -7.1875 -0.730469 -7.085938 C -0.992188 -6.976563 -1.234375 -6.8125 -1.460938 -6.589844 C -1.726563 -6.320313 -1.917969 -6.046875 -2.035156 -5.769531 C -2.144531 -5.488281 -2.195313 -5.222656 -2.1875 -4.96875 C -2.171875 -4.714844 -2.121094 -4.472656 -2.03125 -4.246094 C -1.863281 -3.855469 -1.621094 -3.5 -1.304688 -3.179688 C -0.902344 -2.78125 -0.5 -2.519531 -0.101563 -2.390625 C 0.304688 -2.257813 0.699219 -2.257813 1.089844 -2.390625 C 1.480469 -2.523438 1.820313 -2.734375 2.117188 -3.027344 C 2.367188 -3.28125 2.566406 -3.578125 2.714844 -3.921875 C 2.855469 -4.261719 2.9375 -4.554688 2.957031 -4.792969 L 2.125 -5.621094 Z M 0.816406 -4.3125 "/>
</symbol>
<symbol overflow="visible" id="glyph1-23">
<path style="stroke:none;" d="M 1.003906 -1.003906 L -3.207031 -3.246094 L -2.644531 -3.808594 L -0.265625 -2.460938 L 0.617188 -1.960938 C 0.585938 -2 0.421875 -2.277344 0.117188 -2.792969 L -1.257813 -5.195313 L -0.695313 -5.757813 L 1.660156 -4.371094 L 2.4375 -3.914063 L 2 -4.722656 L 0.6875 -7.140625 L 1.21875 -7.671875 L 3.4375 -3.4375 L 2.867188 -2.867188 L 0.421875 -4.289063 L -0.253906 -4.710938 L 1.578125 -1.578125 Z M 1.003906 -1.003906 "/>
</symbol>
<symbol overflow="visible" id="glyph1-24">
<path style="stroke:none;" d="M -1.152344 -1.710938 L -0.644531 -2.316406 C -0.394531 -2.113281 -0.152344 -1.992188 0.0859375 -1.949219 C 0.324219 -1.898438 0.589844 -1.933594 0.882813 -2.050781 C 1.171875 -2.164063 1.445313 -2.347656 1.699219 -2.605469 C 1.921875 -2.828125 2.085938 -3.058594 2.191406 -3.296875 C 2.296875 -3.535156 2.332031 -3.753906 2.300781 -3.957031 C 2.265625 -4.15625 2.179688 -4.328125 2.046875 -4.464844 C 1.90625 -4.605469 1.746094 -4.6875 1.558594 -4.710938 C 1.371094 -4.734375 1.148438 -4.6875 0.894531 -4.574219 C 0.726563 -4.5 0.394531 -4.308594 -0.113281 -3.996094 C -0.617188 -3.683594 -0.996094 -3.488281 -1.25 -3.414063 C -1.570313 -3.308594 -1.867188 -3.289063 -2.140625 -3.351563 C -2.40625 -3.414063 -2.644531 -3.546875 -2.851563 -3.753906 C -3.074219 -3.976563 -3.222656 -4.25 -3.292969 -4.574219 C -3.359375 -4.894531 -3.320313 -5.230469 -3.175781 -5.578125 C -3.03125 -5.921875 -2.808594 -6.242188 -2.511719 -6.546875 C -2.179688 -6.875 -1.835938 -7.113281 -1.476563 -7.261719 C -1.117188 -7.402344 -0.765625 -7.441406 -0.425781 -7.375 C -0.0859375 -7.300781 0.21875 -7.140625 0.492188 -6.890625 L -0.03125 -6.285156 C -0.339844 -6.53125 -0.65625 -6.640625 -0.976563 -6.613281 C -1.292969 -6.578125 -1.625 -6.390625 -1.96875 -6.050781 C -2.324219 -5.695313 -2.515625 -5.371094 -2.550781 -5.078125 C -2.582031 -4.78125 -2.507813 -4.542969 -2.324219 -4.359375 C -2.164063 -4.199219 -1.976563 -4.125 -1.757813 -4.136719 C -1.539063 -4.144531 -1.132813 -4.332031 -0.546875 -4.707031 C 0.0390625 -5.074219 0.457031 -5.308594 0.71875 -5.410156 C 1.097656 -5.546875 1.441406 -5.589844 1.746094 -5.53125 C 2.050781 -5.46875 2.324219 -5.316406 2.566406 -5.082031 C 2.800781 -4.839844 2.953125 -4.550781 3.03125 -4.207031 C 3.101563 -3.863281 3.070313 -3.503906 2.9375 -3.132813 C 2.796875 -2.761719 2.570313 -2.417969 2.253906 -2.101563 C 1.847656 -1.695313 1.449219 -1.414063 1.0625 -1.261719 C 0.671875 -1.105469 0.285156 -1.070313 -0.105469 -1.152344 C -0.496094 -1.234375 -0.84375 -1.421875 -1.152344 -1.710938 Z M -1.152344 -1.710938 "/>
</symbol>
<symbol overflow="visible" id="glyph1-25">
<path style="stroke:none;" d="M 0.121094 -0.121094 L -0.320313 -0.566406 L -0.625 -4.976563 C -0.84375 -4.726563 -1.042969 -4.515625 -1.222656 -4.34375 L -2.539063 -3.027344 L -2.984375 -3.46875 L -0.347656 -6.105469 L 0.015625 -5.746094 L 0.316406 -1.949219 L 0.351563 -1.238281 C 0.578125 -1.496094 0.796875 -1.738281 1.015625 -1.957031 L 2.507813 -3.449219 L 2.976563 -2.976563 Z M 0.121094 -0.121094 "/>
</symbol>
<symbol overflow="visible" id="glyph1-26">
<path style="stroke:none;" d="M 0.402344 -0.402344 L -2.824219 -3.628906 L -2.332031 -4.121094 L -1.839844 -3.632813 C -1.941406 -3.984375 -1.976563 -4.25 -1.945313 -4.433594 C -1.910156 -4.609375 -1.828125 -4.761719 -1.703125 -4.894531 C -1.519531 -5.074219 -1.273438 -5.203125 -0.964844 -5.28125 L -0.648438 -4.585938 C -0.855469 -4.527344 -1.027344 -4.433594 -1.167969 -4.300781 C -1.285156 -4.179688 -1.355469 -4.035156 -1.378906 -3.871094 C -1.398438 -3.703125 -1.367188 -3.535156 -1.285156 -3.371094 C -1.148438 -3.113281 -0.96875 -2.871094 -0.738281 -2.640625 L 0.949219 -0.949219 Z M 0.402344 -0.402344 "/>
</symbol>
<symbol overflow="visible" id="glyph1-27">
<path style="stroke:none;" d="M -1.140625 -1.535156 L -1.6875 -2.085938 L -0.0078125 -3.765625 L 0.539063 -3.214844 Z M -1.140625 -1.535156 "/>
</symbol>
<symbol overflow="visible" id="glyph1-28">
<path style="stroke:none;" d="M 0.0742188 0.0742188 L -3.238281 -5.820313 L -2.800781 -6.257813 L 0.515625 -0.363281 Z M 0.0742188 0.0742188 "/>
</symbol>
<symbol overflow="visible" id="glyph1-29">
<path style="stroke:none;" d="M 0.457031 -0.457031 L -4 -4.910156 L -2.328125 -6.582031 C -1.984375 -6.917969 -1.667969 -7.144531 -1.371094 -7.261719 C -1.074219 -7.375 -0.773438 -7.398438 -0.472656 -7.332031 C -0.167969 -7.257813 0.0820313 -7.121094 0.289063 -6.917969 C 0.476563 -6.726563 0.605469 -6.496094 0.671875 -6.226563 C 0.734375 -5.953125 0.714844 -5.660156 0.609375 -5.351563 C 0.957031 -5.539063 1.296875 -5.613281 1.636719 -5.566406 C 1.96875 -5.519531 2.265625 -5.367188 2.527344 -5.109375 C 2.730469 -4.898438 2.882813 -4.660156 2.976563 -4.394531 C 3.066406 -4.128906 3.09375 -3.882813 3.0625 -3.65625 C 3.027344 -3.429688 2.9375 -3.191406 2.796875 -2.945313 C 2.648438 -2.699219 2.433594 -2.433594 2.152344 -2.152344 Z M -1.539063 -3.628906 L -0.574219 -4.589844 C -0.3125 -4.847656 -0.140625 -5.054688 -0.0625 -5.203125 C 0.0429688 -5.398438 0.078125 -5.585938 0.0507813 -5.765625 C 0.0234375 -5.945313 -0.0664063 -6.113281 -0.222656 -6.269531 C -0.371094 -6.414063 -0.535156 -6.507813 -0.71875 -6.550781 C -0.898438 -6.589844 -1.074219 -6.5625 -1.25 -6.476563 C -1.421875 -6.382813 -1.671875 -6.179688 -1.992188 -5.863281 L -2.882813 -4.972656 Z M 0.519531 -1.570313 L 1.628906 -2.679688 C 1.816406 -2.867188 1.941406 -3.007813 2.007813 -3.101563 C 2.117188 -3.257813 2.191406 -3.414063 2.226563 -3.5625 C 2.257813 -3.710938 2.25 -3.867188 2.203125 -4.035156 C 2.152344 -4.203125 2.054688 -4.359375 1.917969 -4.5 C 1.746094 -4.664063 1.558594 -4.765625 1.355469 -4.804688 C 1.144531 -4.84375 0.941406 -4.8125 0.746094 -4.710938 C 0.542969 -4.609375 0.300781 -4.414063 0.0195313 -4.132813 L -1.011719 -3.101563 Z M 0.519531 -1.570313 "/>
</symbol>
<symbol overflow="visible" id="glyph1-30">
<path style="stroke:none;" d="M 0.578125 -0.0429688 L 1.1875 -0.496094 C 1.371094 -0.351563 1.550781 -0.292969 1.730469 -0.320313 C 1.964844 -0.355469 2.203125 -0.492188 2.441406 -0.726563 C 2.691406 -0.976563 2.835938 -1.222656 2.875 -1.464844 C 2.910156 -1.703125 2.859375 -1.9375 2.726563 -2.167969 C 2.640625 -2.308594 2.421875 -2.554688 2.066406 -2.910156 C 2.105469 -2.386719 1.949219 -1.949219 1.59375 -1.59375 C 1.148438 -1.148438 0.644531 -0.964844 0.0859375 -1.042969 C -0.476563 -1.121094 -0.980469 -1.382813 -1.429688 -1.832031 C -1.738281 -2.136719 -1.964844 -2.476563 -2.117188 -2.851563 C -2.261719 -3.222656 -2.300781 -3.585938 -2.234375 -3.9375 C -2.160156 -4.289063 -1.984375 -4.609375 -1.703125 -4.898438 C -1.316406 -5.277344 -0.847656 -5.4375 -0.296875 -5.378906 L -0.6875 -5.765625 L -0.183594 -6.269531 L 2.605469 -3.480469 C 3.105469 -2.976563 3.410156 -2.566406 3.519531 -2.257813 C 3.625 -1.945313 3.628906 -1.621094 3.53125 -1.277344 C 3.429688 -0.933594 3.21875 -0.597656 2.894531 -0.277344 C 2.507813 0.109375 2.109375 0.328125 1.699219 0.394531 C 1.289063 0.457031 0.914063 0.316406 0.578125 -0.0429688 Z M -0.910156 -2.433594 C -0.480469 -2.003906 -0.0898438 -1.78125 0.269531 -1.757813 C 0.628906 -1.730469 0.9375 -1.84375 1.195313 -2.097656 C 1.445313 -2.347656 1.558594 -2.652344 1.535156 -3.019531 C 1.511719 -3.378906 1.292969 -3.769531 0.882813 -4.1875 C 0.484375 -4.582031 0.101563 -4.792969 -0.273438 -4.816406 C -0.648438 -4.839844 -0.960938 -4.726563 -1.210938 -4.484375 C -1.449219 -4.238281 -1.554688 -3.933594 -1.53125 -3.566406 C -1.5 -3.195313 -1.292969 -2.816406 -0.910156 -2.433594 Z M -0.910156 -2.433594 "/>
</symbol>
<symbol overflow="visible" id="glyph1-31">
<path style="stroke:none;" d="M 1.613281 -1.613281 L -2.316406 -5.542969 L -3.78125 -4.074219 L -4.308594 -4.601563 L -0.777344 -8.128906 L -0.253906 -7.605469 L -1.726563 -6.132813 L 2.203125 -2.203125 Z M 1.613281 -1.613281 "/>
</symbol>
<symbol overflow="visible" id="glyph2-0">
<path style="stroke:none;" d="M 0 -1.375 L -6.875 -1.375 L -6.875 -6.875 L 0 -6.875 Z M -0.171875 -1.546875 L -0.171875 -6.703125 L -6.703125 -6.703125 L -6.703125 -1.546875 Z M -0.171875 -1.546875 "/>
</symbol>
<symbol overflow="visible" id="glyph2-1">
<path style="stroke:none;" d="M 0 0.015625 L -7.875 -3.007813 L -7.875 -4.128906 L 0 -7.351563 L 0 -6.164063 L -2.382813 -5.246094 L -2.382813 -1.957031 L 0 -1.089844 Z M -3.234375 -2.257813 L -3.234375 -4.925781 L -5.414063 -4.101563 C -6.074219 -3.851563 -6.617188 -3.664063 -7.046875 -3.546875 C -6.539063 -3.441406 -6.039063 -3.300781 -5.542969 -3.121094 Z M -3.234375 -2.257813 "/>
</symbol>
<symbol overflow="visible" id="glyph2-2">
<path style="stroke:none;" d="M 0 -0.726563 L -5.703125 -0.726563 L -5.703125 -1.59375 L -4.894531 -1.59375 C -5.515625 -2.011719 -5.828125 -2.617188 -5.832031 -3.410156 C -5.828125 -3.753906 -5.765625 -4.066406 -5.644531 -4.355469 C -5.519531 -4.640625 -5.359375 -4.859375 -5.160156 -5.003906 C -4.957031 -5.144531 -4.71875 -5.242188 -4.445313 -5.304688 C -4.265625 -5.335938 -3.953125 -5.355469 -3.507813 -5.359375 L 0 -5.359375 L 0 -4.394531 L -3.46875 -4.394531 C -3.863281 -4.394531 -4.15625 -4.355469 -4.351563 -4.28125 C -4.542969 -4.203125 -4.699219 -4.070313 -4.820313 -3.878906 C -4.933594 -3.6875 -4.992188 -3.460938 -4.996094 -3.207031 C -4.992188 -2.792969 -4.859375 -2.4375 -4.601563 -2.140625 C -4.335938 -1.835938 -3.84375 -1.6875 -3.117188 -1.691406 L 0 -1.691406 Z M 0 -0.726563 "/>
</symbol>
<symbol overflow="visible" id="glyph2-3">
<path style="stroke:none;" d="M 0 -0.214844 L -0.785156 -0.214844 L -4.953125 -3.847656 C -4.929688 -3.429688 -4.921875 -3.066406 -4.921875 -2.753906 L -4.921875 -0.429688 L -5.703125 -0.429688 L -5.703125 -5.09375 L -5.066406 -5.09375 L -1.445313 -2.003906 L -0.785156 -1.40625 C -0.816406 -1.839844 -0.832031 -2.246094 -0.832031 -2.625 L -0.832031 -5.265625 L 0 -5.265625 Z M 0 -0.214844 "/>
</symbol>
<symbol overflow="visible" id="glyph2-4">
<path style="stroke:none;" d="M -0.703125 -4.445313 C -0.398438 -4.085938 -0.183594 -3.742188 -0.0585938 -3.414063 C 0.0664063 -3.082031 0.128906 -2.726563 0.128906 -2.347656 C 0.128906 -1.71875 -0.0234375 -1.238281 -0.328125 -0.902344 C -0.632813 -0.566406 -1.023438 -0.398438 -1.503906 -0.398438 C -1.78125 -0.398438 -2.035156 -0.460938 -2.269531 -0.585938 C -2.496094 -0.710938 -2.683594 -0.875 -2.824219 -1.085938 C -2.964844 -1.289063 -3.070313 -1.523438 -3.140625 -1.785156 C -3.191406 -1.96875 -3.238281 -2.253906 -3.289063 -2.640625 C -3.375 -3.417969 -3.488281 -3.992188 -3.621094 -4.367188 C -3.753906 -4.367188 -3.835938 -4.371094 -3.871094 -4.371094 C -4.265625 -4.371094 -4.542969 -4.277344 -4.703125 -4.097656 C -4.917969 -3.847656 -5.027344 -3.480469 -5.03125 -2.996094 C -5.027344 -2.539063 -4.949219 -2.203125 -4.792969 -1.988281 C -4.632813 -1.769531 -4.351563 -1.609375 -3.949219 -1.507813 L -4.078125 -0.5625 C -4.480469 -0.648438 -4.804688 -0.789063 -5.054688 -0.988281 C -5.300781 -1.183594 -5.492188 -1.46875 -5.628906 -1.84375 C -5.761719 -2.214844 -5.828125 -2.644531 -5.832031 -3.136719 C -5.828125 -3.621094 -5.773438 -4.019531 -5.660156 -4.324219 C -5.542969 -4.628906 -5.398438 -4.851563 -5.226563 -4.996094 C -5.054688 -5.136719 -4.835938 -5.238281 -4.570313 -5.296875 C -4.40625 -5.328125 -4.109375 -5.34375 -3.679688 -5.34375 L -2.390625 -5.34375 C -1.492188 -5.34375 -0.921875 -5.363281 -0.683594 -5.40625 C -0.445313 -5.445313 -0.21875 -5.527344 0 -5.648438 L 0 -4.640625 C -0.199219 -4.539063 -0.433594 -4.472656 -0.703125 -4.445313 Z M -2.863281 -4.367188 C -2.71875 -4.011719 -2.597656 -3.488281 -2.496094 -2.789063 C -2.4375 -2.390625 -2.371094 -2.109375 -2.300781 -1.945313 C -2.226563 -1.78125 -2.121094 -1.652344 -1.988281 -1.5625 C -1.847656 -1.472656 -1.695313 -1.429688 -1.53125 -1.429688 C -1.269531 -1.429688 -1.054688 -1.527344 -0.886719 -1.722656 C -0.710938 -1.917969 -0.625 -2.203125 -0.628906 -2.578125 C -0.625 -2.949219 -0.707031 -3.277344 -0.871094 -3.570313 C -1.03125 -3.859375 -1.253906 -4.074219 -1.542969 -4.210938 C -1.753906 -4.3125 -2.078125 -4.363281 -2.507813 -4.367188 Z M -2.863281 -4.367188 "/>
</symbol>
<symbol overflow="visible" id="glyph2-5">
<path style="stroke:none;" d="M 0 -0.726563 L -7.875 -0.726563 L -7.875 -1.691406 L -5.046875 -1.691406 C -5.566406 -2.140625 -5.828125 -2.710938 -5.832031 -3.398438 C -5.828125 -3.820313 -5.746094 -4.1875 -5.582031 -4.5 C -5.414063 -4.8125 -5.183594 -5.035156 -4.890625 -5.167969 C -4.597656 -5.300781 -4.171875 -5.367188 -3.613281 -5.371094 L 0 -5.371094 L 0 -4.40625 L -3.613281 -4.40625 C -4.09375 -4.40625 -4.445313 -4.300781 -4.667969 -4.089844 C -4.886719 -3.878906 -4.996094 -3.582031 -5 -3.203125 C -4.996094 -2.914063 -4.921875 -2.644531 -4.777344 -2.394531 C -4.625 -2.140625 -4.425781 -1.960938 -4.171875 -1.851563 C -3.917969 -1.742188 -3.566406 -1.6875 -3.121094 -1.691406 L 0 -1.691406 Z M 0 -0.726563 "/>
</symbol>
<symbol overflow="visible" id="glyph2-6">
<path style="stroke:none;" d="M 0 -0.703125 L -7.875 -0.703125 L -7.875 -1.671875 L 0 -1.671875 Z M 0 -0.703125 "/>
</symbol>
<symbol overflow="visible" id="glyph2-7">
<path style="stroke:none;" d=""/>
</symbol>
<symbol overflow="visible" id="glyph2-8">
<path style="stroke:none;" d="M 0 -0.847656 L -7.875 -0.847656 L -7.875 -3.820313 C -7.875 -4.339844 -7.847656 -4.738281 -7.796875 -5.015625 C -7.730469 -5.402344 -7.609375 -5.726563 -7.429688 -5.988281 C -7.25 -6.25 -6.996094 -6.460938 -6.671875 -6.621094 C -6.34375 -6.777344 -5.984375 -6.855469 -5.597656 -6.859375 C -4.925781 -6.855469 -4.359375 -6.640625 -3.894531 -6.21875 C -3.429688 -5.789063 -3.199219 -5.019531 -3.199219 -3.910156 L -3.203125 -1.890625 L 0 -1.890625 Z M -4.128906 -1.890625 L -4.128906 -3.925781 C -4.125 -4.597656 -4.25 -5.074219 -4.503906 -5.359375 C -4.753906 -5.640625 -5.105469 -5.78125 -5.5625 -5.785156 C -5.890625 -5.78125 -6.175781 -5.699219 -6.410156 -5.535156 C -6.644531 -5.367188 -6.796875 -5.148438 -6.875 -4.875 C -6.917969 -4.699219 -6.941406 -4.375 -6.945313 -3.90625 L -6.945313 -1.890625 Z M -4.128906 -1.890625 "/>
</symbol>
<symbol overflow="visible" id="glyph2-9">
<path style="stroke:none;" d="M -1.835938 -4.628906 L -1.714844 -5.628906 C -1.125 -5.46875 -0.671875 -5.175781 -0.351563 -4.75 C -0.03125 -4.324219 0.128906 -3.78125 0.128906 -3.121094 C 0.128906 -2.28125 -0.125 -1.617188 -0.640625 -1.132813 C -1.152344 -0.640625 -1.875 -0.398438 -2.804688 -0.402344 C -3.761719 -0.398438 -4.503906 -0.644531 -5.035156 -1.144531 C -5.5625 -1.636719 -5.828125 -2.277344 -5.832031 -3.066406 C -5.828125 -3.824219 -5.570313 -4.449219 -5.050781 -4.933594 C -4.53125 -5.417969 -3.800781 -5.660156 -2.863281 -5.660156 C -2.804688 -5.660156 -2.71875 -5.65625 -2.605469 -5.65625 L -2.605469 -1.402344 C -1.976563 -1.433594 -1.496094 -1.613281 -1.164063 -1.933594 C -0.828125 -2.25 -0.660156 -2.644531 -0.664063 -3.125 C -0.660156 -3.476563 -0.753906 -3.78125 -0.941406 -4.03125 C -1.125 -4.28125 -1.421875 -4.480469 -1.835938 -4.628906 Z M -3.398438 -1.457031 L -3.398438 -4.640625 C -3.878906 -4.597656 -4.238281 -4.472656 -4.480469 -4.273438 C -4.851563 -3.960938 -5.039063 -3.5625 -5.039063 -3.078125 C -5.039063 -2.628906 -4.890625 -2.257813 -4.59375 -1.957031 C -4.296875 -1.652344 -3.898438 -1.484375 -3.398438 -1.457031 Z M -3.398438 -1.457031 "/>
</symbol>
<symbol overflow="visible" id="glyph2-10">
<path style="stroke:none;" d="M 0 -0.714844 L -5.703125 -0.714844 L -5.703125 -1.585938 L -4.839844 -1.585938 C -5.242188 -1.804688 -5.507813 -2.007813 -5.636719 -2.199219 C -5.765625 -2.382813 -5.828125 -2.589844 -5.832031 -2.820313 C -5.828125 -3.140625 -5.726563 -3.472656 -5.523438 -3.8125 L -4.625 -3.480469 C -4.761719 -3.242188 -4.832031 -3.003906 -4.835938 -2.773438 C -4.832031 -2.554688 -4.769531 -2.363281 -4.644531 -2.199219 C -4.515625 -2.027344 -4.339844 -1.910156 -4.113281 -1.84375 C -3.769531 -1.730469 -3.390625 -1.675781 -2.984375 -1.679688 L 0 -1.679688 Z M 0 -0.714844 "/>
</symbol>
<symbol overflow="visible" id="glyph2-11">
<path style="stroke:none;" d="M -1.703125 -0.339844 L -1.851563 -1.292969 C -1.46875 -1.34375 -1.171875 -1.492188 -0.96875 -1.742188 C -0.761719 -1.984375 -0.660156 -2.328125 -0.664063 -2.773438 C -0.660156 -3.210938 -0.75 -3.539063 -0.933594 -3.757813 C -1.113281 -3.96875 -1.328125 -4.078125 -1.574219 -4.082031 C -1.789063 -4.078125 -1.960938 -3.984375 -2.089844 -3.796875 C -2.171875 -3.664063 -2.28125 -3.332031 -2.417969 -2.808594 C -2.59375 -2.097656 -2.75 -1.609375 -2.882813 -1.335938 C -3.011719 -1.0625 -3.191406 -0.851563 -3.421875 -0.710938 C -3.652344 -0.566406 -3.90625 -0.496094 -4.1875 -0.5 C -4.441406 -0.496094 -4.675781 -0.554688 -4.894531 -0.671875 C -5.105469 -0.785156 -5.289063 -0.945313 -5.4375 -1.148438 C -5.546875 -1.296875 -5.636719 -1.5 -5.714844 -1.761719 C -5.789063 -2.019531 -5.828125 -2.300781 -5.832031 -2.601563 C -5.828125 -3.046875 -5.765625 -3.4375 -5.636719 -3.777344 C -5.507813 -4.113281 -5.332031 -4.363281 -5.113281 -4.527344 C -4.890625 -4.6875 -4.597656 -4.796875 -4.234375 -4.859375 L -4.101563 -3.914063 C -4.394531 -3.871094 -4.621094 -3.746094 -4.789063 -3.542969 C -4.953125 -3.335938 -5.039063 -3.042969 -5.039063 -2.667969 C -5.039063 -2.222656 -4.964844 -1.90625 -4.816406 -1.71875 C -4.667969 -1.523438 -4.496094 -1.429688 -4.300781 -1.433594 C -4.175781 -1.429688 -4.0625 -1.46875 -3.964844 -1.550781 C -3.859375 -1.628906 -3.773438 -1.753906 -3.707031 -1.921875 C -3.667969 -2.015625 -3.585938 -2.300781 -3.460938 -2.777344 C -3.273438 -3.460938 -3.121094 -3.9375 -3.007813 -4.207031 C -2.890625 -4.476563 -2.722656 -4.6875 -2.5 -4.84375 C -2.277344 -4.996094 -2.003906 -5.074219 -1.675781 -5.074219 C -1.351563 -5.074219 -1.046875 -4.980469 -0.765625 -4.792969 C -0.480469 -4.605469 -0.261719 -4.332031 -0.105469 -3.980469 C 0.0507813 -3.621094 0.128906 -3.222656 0.128906 -2.777344 C 0.128906 -2.035156 -0.0234375 -1.46875 -0.332031 -1.082031 C -0.640625 -0.691406 -1.097656 -0.445313 -1.703125 -0.339844 Z M -1.703125 -0.339844 "/>
</symbol>
<symbol overflow="visible" id="glyph2-12">
<path style="stroke:none;" d="M -2.851563 -0.367188 C -3.90625 -0.363281 -4.6875 -0.65625 -5.199219 -1.246094 C -5.617188 -1.734375 -5.828125 -2.332031 -5.832031 -3.039063 C -5.828125 -3.820313 -5.574219 -4.460938 -5.0625 -4.960938 C -4.546875 -5.457031 -3.835938 -5.707031 -2.933594 -5.710938 C -2.195313 -5.707031 -1.617188 -5.597656 -1.199219 -5.378906 C -0.777344 -5.15625 -0.449219 -4.832031 -0.21875 -4.414063 C 0.015625 -3.992188 0.128906 -3.535156 0.128906 -3.039063 C 0.128906 -2.238281 -0.125 -1.59375 -0.636719 -1.105469 C -1.148438 -0.609375 -1.886719 -0.363281 -2.851563 -0.367188 Z M -2.851563 -1.359375 C -2.121094 -1.359375 -1.574219 -1.515625 -1.210938 -1.835938 C -0.84375 -2.152344 -0.660156 -2.554688 -0.664063 -3.039063 C -0.660156 -3.515625 -0.84375 -3.914063 -1.210938 -4.234375 C -1.574219 -4.550781 -2.132813 -4.710938 -2.882813 -4.714844 C -3.585938 -4.710938 -4.117188 -4.550781 -4.484375 -4.234375 C -4.84375 -3.910156 -5.027344 -3.511719 -5.03125 -3.039063 C -5.027344 -2.554688 -4.847656 -2.152344 -4.488281 -1.835938 C -4.128906 -1.515625 -3.582031 -1.359375 -2.851563 -1.359375 Z M -2.851563 -1.359375 "/>
</symbol>
<symbol overflow="visible" id="glyph3-0">
<path style="stroke:none;" d="M 1.648438 0 L 1.648438 -8.25 L 8.25 -8.25 L 8.25 0 Z M 1.855469 -0.207031 L 8.042969 -0.207031 L 8.042969 -8.042969 L 1.855469 -8.042969 Z M 1.855469 -0.207031 "/>
</symbol>
<symbol overflow="visible" id="glyph3-1">
<path style="stroke:none;" d="M 1.058594 0 L 1.058594 -9.449219 L 2.308594 -9.449219 L 2.308594 -5.570313 L 7.21875 -5.570313 L 7.21875 -9.449219 L 8.46875 -9.449219 L 8.46875 0 L 7.21875 0 L 7.21875 -4.453125 L 2.308594 -4.453125 L 2.308594 0 Z M 1.058594 0 "/>
</symbol>
<symbol overflow="visible" id="glyph3-2">
<path style="stroke:none;" d="M 5.335938 -0.84375 C 4.902344 -0.476563 4.488281 -0.21875 4.09375 -0.0703125 C 3.695313 0.078125 3.269531 0.152344 2.816406 0.15625 C 2.0625 0.152344 1.484375 -0.0273438 1.082031 -0.394531 C 0.675781 -0.761719 0.472656 -1.234375 0.476563 -1.804688 C 0.472656 -2.140625 0.550781 -2.445313 0.703125 -2.722656 C 0.855469 -3 1.054688 -3.222656 1.304688 -3.390625 C 1.550781 -3.554688 1.828125 -3.679688 2.140625 -3.769531 C 2.363281 -3.824219 2.707031 -3.882813 3.171875 -3.945313 C 4.105469 -4.054688 4.796875 -4.1875 5.238281 -4.34375 C 5.242188 -4.5 5.242188 -4.601563 5.246094 -4.648438 C 5.242188 -5.117188 5.132813 -5.449219 4.917969 -5.644531 C 4.617188 -5.902344 4.179688 -6.035156 3.597656 -6.039063 C 3.050781 -6.035156 2.644531 -5.9375 2.386719 -5.75 C 2.125 -5.554688 1.933594 -5.21875 1.8125 -4.738281 L 0.675781 -4.890625 C 0.777344 -5.375 0.949219 -5.765625 1.183594 -6.066406 C 1.417969 -6.363281 1.757813 -6.59375 2.210938 -6.757813 C 2.65625 -6.914063 3.175781 -6.996094 3.765625 -7 C 4.347656 -6.996094 4.820313 -6.925781 5.1875 -6.792969 C 5.546875 -6.652344 5.816406 -6.480469 5.992188 -6.273438 C 6.160156 -6.0625 6.28125 -5.800781 6.355469 -5.484375 C 6.390625 -5.285156 6.410156 -4.925781 6.414063 -4.414063 L 6.414063 -2.867188 C 6.410156 -1.785156 6.433594 -1.105469 6.488281 -0.820313 C 6.535156 -0.535156 6.632813 -0.261719 6.78125 0 L 5.570313 0 C 5.445313 -0.238281 5.367188 -0.519531 5.335938 -0.84375 Z M 5.238281 -3.433594 C 4.816406 -3.261719 4.183594 -3.113281 3.34375 -2.996094 C 2.863281 -2.925781 2.527344 -2.851563 2.332031 -2.765625 C 2.132813 -2.679688 1.980469 -2.550781 1.875 -2.386719 C 1.765625 -2.21875 1.710938 -2.035156 1.714844 -1.835938 C 1.710938 -1.523438 1.828125 -1.265625 2.066406 -1.0625 C 2.296875 -0.851563 2.640625 -0.75 3.09375 -0.753906 C 3.539063 -0.75 3.933594 -0.847656 4.285156 -1.046875 C 4.628906 -1.238281 4.886719 -1.507813 5.054688 -1.851563 C 5.175781 -2.109375 5.238281 -2.496094 5.238281 -3.011719 Z M 1.824219 -8.1875 L 1.824219 -9.507813 L 3.035156 -9.507813 L 3.035156 -8.1875 Z M 4.226563 -8.1875 L 4.226563 -9.507813 L 5.441406 -9.507813 L 5.441406 -8.1875 Z M 4.226563 -8.1875 "/>
</symbol>
<symbol overflow="visible" id="glyph3-3">
<path style="stroke:none;" d="M 5.355469 0 L 5.355469 -1.003906 C 4.824219 -0.230469 4.097656 0.152344 3.183594 0.15625 C 2.777344 0.152344 2.402344 0.078125 2.050781 -0.0742188 C 1.699219 -0.226563 1.4375 -0.421875 1.273438 -0.660156 C 1.101563 -0.890625 0.984375 -1.175781 0.914063 -1.519531 C 0.867188 -1.746094 0.84375 -2.109375 0.84375 -2.605469 L 0.84375 -6.84375 L 2.003906 -6.84375 L 2.003906 -3.046875 C 2.003906 -2.441406 2.027344 -2.03125 2.074219 -1.824219 C 2.144531 -1.515625 2.296875 -1.277344 2.539063 -1.105469 C 2.773438 -0.929688 3.066406 -0.84375 3.414063 -0.84375 C 3.761719 -0.84375 4.089844 -0.929688 4.394531 -1.109375 C 4.699219 -1.285156 4.914063 -1.53125 5.042969 -1.839844 C 5.167969 -2.144531 5.230469 -2.589844 5.234375 -3.175781 L 5.234375 -6.84375 L 6.394531 -6.84375 L 6.394531 0 Z M 5.355469 0 "/>
</symbol>
<symbol overflow="visible" id="glyph3-4">
<path style="stroke:none;" d="M 1.148438 0 L 1.148438 -5.941406 L 0.121094 -5.941406 L 0.121094 -6.84375 L 1.148438 -6.84375 L 1.148438 -7.574219 C 1.148438 -8.03125 1.1875 -8.371094 1.269531 -8.597656 C 1.378906 -8.894531 1.574219 -9.140625 1.859375 -9.328125 C 2.136719 -9.515625 2.53125 -9.609375 3.042969 -9.609375 C 3.363281 -9.609375 3.726563 -9.570313 4.125 -9.492188 L 3.949219 -8.480469 C 3.707031 -8.519531 3.480469 -8.542969 3.269531 -8.546875 C 2.914063 -8.542969 2.664063 -8.46875 2.519531 -8.320313 C 2.371094 -8.167969 2.296875 -7.886719 2.300781 -7.476563 L 2.300781 -6.84375 L 3.636719 -6.84375 L 3.636719 -5.941406 L 2.300781 -5.941406 L 2.300781 0 Z M 1.148438 0 "/>
</symbol>
<symbol overflow="visible" id="glyph3-5">
<path style="stroke:none;" d="M 0.875 -8.113281 L 0.875 -9.449219 L 2.035156 -9.449219 L 2.035156 -8.113281 Z M 0.875 0 L 0.875 -6.84375 L 2.035156 -6.84375 L 2.035156 0 Z M 0.875 0 "/>
</symbol>
<symbol overflow="visible" id="glyph3-6">
<path style="stroke:none;" d="M 0.65625 0.566406 L 1.785156 0.734375 C 1.828125 1.078125 1.960938 1.332031 2.179688 1.496094 C 2.464844 1.707031 2.855469 1.816406 3.359375 1.816406 C 3.890625 1.816406 4.304688 1.707031 4.601563 1.492188 C 4.890625 1.277344 5.089844 0.976563 5.195313 0.59375 C 5.253906 0.351563 5.28125 -0.140625 5.277344 -0.894531 C 4.769531 -0.296875 4.136719 0 3.382813 0 C 2.4375 0 1.710938 -0.335938 1.199219 -1.015625 C 0.679688 -1.691406 0.421875 -2.507813 0.425781 -3.460938 C 0.421875 -4.113281 0.539063 -4.714844 0.777344 -5.269531 C 1.011719 -5.816406 1.355469 -6.242188 1.804688 -6.546875 C 2.253906 -6.84375 2.78125 -6.996094 3.390625 -7 C 4.195313 -6.996094 4.859375 -6.667969 5.386719 -6.019531 L 5.386719 -6.84375 L 6.457031 -6.84375 L 6.457031 -0.929688 C 6.457031 0.136719 6.347656 0.890625 6.132813 1.335938 C 5.914063 1.78125 5.570313 2.132813 5.101563 2.390625 C 4.628906 2.648438 4.050781 2.777344 3.363281 2.777344 C 2.546875 2.777344 1.886719 2.59375 1.386719 2.226563 C 0.882813 1.859375 0.640625 1.304688 0.65625 0.566406 Z M 1.617188 -3.546875 C 1.617188 -2.644531 1.792969 -1.988281 2.152344 -1.578125 C 2.503906 -1.164063 2.953125 -0.960938 3.492188 -0.960938 C 4.023438 -0.960938 4.46875 -1.164063 4.832031 -1.574219 C 5.191406 -1.984375 5.371094 -2.628906 5.375 -3.507813 C 5.371094 -4.339844 5.1875 -4.96875 4.816406 -5.398438 C 4.445313 -5.820313 3.996094 -6.035156 3.472656 -6.039063 C 2.953125 -6.035156 2.515625 -5.824219 2.15625 -5.410156 C 1.796875 -4.988281 1.617188 -4.367188 1.617188 -3.546875 Z M 1.617188 -3.546875 "/>
</symbol>
<symbol overflow="visible" id="glyph3-7">
<path style="stroke:none;" d="M 0.875 0 L 0.875 -9.449219 L 2.035156 -9.449219 L 2.035156 -4.0625 L 4.78125 -6.84375 L 6.285156 -6.84375 L 3.667969 -4.304688 L 6.546875 0 L 5.117188 0 L 2.855469 -3.5 L 2.035156 -2.714844 L 2.035156 0 Z M 0.875 0 "/>
</symbol>
<symbol overflow="visible" id="glyph3-8">
<path style="stroke:none;" d="M 5.554688 -2.203125 L 6.753906 -2.054688 C 6.5625 -1.351563 6.210938 -0.808594 5.703125 -0.421875 C 5.1875 -0.0390625 4.535156 0.152344 3.746094 0.15625 C 2.738281 0.152344 1.945313 -0.152344 1.363281 -0.769531 C 0.773438 -1.382813 0.480469 -2.25 0.484375 -3.363281 C 0.480469 -4.515625 0.777344 -5.410156 1.371094 -6.046875 C 1.964844 -6.679688 2.734375 -6.996094 3.679688 -7 C 4.59375 -6.996094 5.339844 -6.683594 5.921875 -6.0625 C 6.5 -5.4375 6.789063 -4.5625 6.792969 -3.433594 C 6.789063 -3.363281 6.789063 -3.257813 6.785156 -3.125 L 1.683594 -3.125 C 1.722656 -2.371094 1.9375 -1.796875 2.320313 -1.398438 C 2.703125 -0.996094 3.179688 -0.796875 3.75 -0.800781 C 4.175781 -0.796875 4.539063 -0.90625 4.839844 -1.132813 C 5.140625 -1.351563 5.378906 -1.710938 5.554688 -2.203125 Z M 1.746094 -4.078125 L 5.570313 -4.078125 C 5.515625 -4.65625 5.367188 -5.085938 5.128906 -5.375 C 4.757813 -5.820313 4.28125 -6.046875 3.691406 -6.046875 C 3.160156 -6.046875 2.710938 -5.867188 2.347656 -5.511719 C 1.984375 -5.152344 1.785156 -4.675781 1.746094 -4.078125 Z M 1.746094 -4.078125 "/>
</symbol>
<symbol overflow="visible" id="glyph3-9">
<path style="stroke:none;" d="M 3.402344 -1.039063 L 3.570313 -0.0117188 C 3.242188 0.0546875 2.953125 0.0859375 2.695313 0.0898438 C 2.273438 0.0859375 1.945313 0.0234375 1.714844 -0.109375 C 1.480469 -0.238281 1.316406 -0.414063 1.222656 -0.632813 C 1.125 -0.851563 1.078125 -1.308594 1.082031 -2.003906 L 1.082031 -5.941406 L 0.230469 -5.941406 L 0.230469 -6.84375 L 1.082031 -6.84375 L 1.082031 -8.539063 L 2.238281 -9.234375 L 2.238281 -6.84375 L 3.402344 -6.84375 L 3.402344 -5.941406 L 2.238281 -5.941406 L 2.238281 -1.941406 C 2.238281 -1.605469 2.257813 -1.394531 2.296875 -1.300781 C 2.335938 -1.207031 2.402344 -1.128906 2.496094 -1.074219 C 2.589844 -1.015625 2.722656 -0.988281 2.894531 -0.992188 C 3.019531 -0.988281 3.1875 -1.003906 3.402344 -1.039063 Z M 3.402344 -1.039063 "/>
</symbol>
<symbol overflow="visible" id="glyph3-10">
<path style="stroke:none;" d=""/>
</symbol>
<symbol overflow="visible" id="glyph3-11">
<path style="stroke:none;" d="M 5.3125 0 L 5.3125 -0.863281 C 4.875 -0.183594 4.238281 0.152344 3.398438 0.15625 C 2.851563 0.152344 2.347656 0.00390625 1.890625 -0.292969 C 1.433594 -0.59375 1.078125 -1.011719 0.828125 -1.554688 C 0.574219 -2.09375 0.449219 -2.714844 0.453125 -3.414063 C 0.449219 -4.097656 0.5625 -4.71875 0.792969 -5.273438 C 1.015625 -5.828125 1.359375 -6.253906 1.816406 -6.554688 C 2.269531 -6.847656 2.777344 -6.996094 3.34375 -7 C 3.753906 -6.996094 4.121094 -6.910156 4.445313 -6.738281 C 4.765625 -6.5625 5.027344 -6.335938 5.234375 -6.058594 L 5.234375 -9.449219 L 6.386719 -9.449219 L 6.386719 0 Z M 1.644531 -3.414063 C 1.640625 -2.535156 1.824219 -1.878906 2.199219 -1.449219 C 2.566406 -1.011719 3.003906 -0.796875 3.507813 -0.800781 C 4.011719 -0.796875 4.441406 -1.003906 4.796875 -1.421875 C 5.152344 -1.832031 5.332031 -2.464844 5.332031 -3.320313 C 5.332031 -4.253906 5.148438 -4.941406 4.789063 -5.378906 C 4.421875 -5.816406 3.976563 -6.035156 3.453125 -6.039063 C 2.933594 -6.035156 2.503906 -5.824219 2.160156 -5.40625 C 1.8125 -4.984375 1.640625 -4.320313 1.644531 -3.414063 Z M 1.644531 -3.414063 "/>
</symbol>
<symbol overflow="visible" id="glyph3-12">
<path style="stroke:none;" d="M 0.855469 0 L 0.855469 -6.84375 L 1.902344 -6.84375 L 1.902344 -5.808594 C 2.164063 -6.289063 2.410156 -6.609375 2.636719 -6.765625 C 2.863281 -6.917969 3.109375 -6.996094 3.382813 -7 C 3.769531 -6.996094 4.167969 -6.871094 4.578125 -6.625 L 4.175781 -5.550781 C 3.890625 -5.714844 3.605469 -5.800781 3.324219 -5.800781 C 3.066406 -5.800781 2.839844 -5.722656 2.640625 -5.570313 C 2.4375 -5.417969 2.292969 -5.207031 2.210938 -4.9375 C 2.078125 -4.523438 2.015625 -4.070313 2.015625 -3.582031 L 2.015625 0 Z M 0.855469 0 "/>
</symbol>
<symbol overflow="visible" id="glyph3-13">
<path style="stroke:none;" d="M 0.96875 0 L 0.96875 -9.449219 L 4.511719 -9.449219 C 5.230469 -9.445313 5.808594 -9.347656 6.246094 -9.160156 C 6.683594 -8.964844 7.023438 -8.671875 7.273438 -8.277344 C 7.515625 -7.878906 7.640625 -7.464844 7.644531 -7.03125 C 7.640625 -6.625 7.53125 -6.242188 7.316406 -5.890625 C 7.09375 -5.53125 6.761719 -5.246094 6.324219 -5.027344 C 6.890625 -4.859375 7.332031 -4.570313 7.640625 -4.167969 C 7.945313 -3.761719 8.097656 -3.285156 8.101563 -2.738281 C 8.097656 -2.292969 8.003906 -1.882813 7.820313 -1.503906 C 7.628906 -1.121094 7.398438 -0.828125 7.125 -0.625 C 6.851563 -0.417969 6.507813 -0.261719 6.09375 -0.15625 C 5.679688 -0.0507813 5.171875 0 4.570313 0 Z M 2.21875 -5.476563 L 4.261719 -5.476563 C 4.8125 -5.472656 5.210938 -5.511719 5.453125 -5.589844 C 5.769531 -5.683594 6.007813 -5.839844 6.171875 -6.058594 C 6.328125 -6.277344 6.410156 -6.550781 6.414063 -6.882813 C 6.410156 -7.195313 6.335938 -7.472656 6.1875 -7.710938 C 6.035156 -7.949219 5.820313 -8.109375 5.542969 -8.199219 C 5.261719 -8.285156 4.78125 -8.332031 4.105469 -8.332031 L 2.21875 -8.332031 Z M 2.21875 -1.113281 L 4.570313 -1.113281 C 4.972656 -1.113281 5.253906 -1.128906 5.421875 -1.160156 C 5.703125 -1.210938 5.945313 -1.296875 6.140625 -1.417969 C 6.335938 -1.535156 6.492188 -1.707031 6.617188 -1.941406 C 6.738281 -2.167969 6.800781 -2.433594 6.804688 -2.738281 C 6.800781 -3.089844 6.710938 -3.398438 6.535156 -3.65625 C 6.351563 -3.914063 6.101563 -4.09375 5.785156 -4.203125 C 5.460938 -4.304688 5 -4.359375 4.402344 -4.363281 L 2.21875 -4.363281 Z M 2.21875 -1.113281 "/>
</symbol>
<symbol overflow="visible" id="glyph3-14">
<path style="stroke:none;" d="M 0.40625 -2.042969 L 1.554688 -2.222656 C 1.613281 -1.761719 1.792969 -1.410156 2.089844 -1.167969 C 2.382813 -0.917969 2.792969 -0.796875 3.324219 -0.800781 C 3.855469 -0.796875 4.253906 -0.90625 4.511719 -1.125 C 4.769531 -1.339844 4.898438 -1.59375 4.898438 -1.886719 C 4.898438 -2.148438 4.785156 -2.355469 4.558594 -2.507813 C 4.398438 -2.609375 4 -2.738281 3.371094 -2.898438 C 2.515625 -3.113281 1.925781 -3.300781 1.601563 -3.457031 C 1.269531 -3.613281 1.019531 -3.828125 0.851563 -4.105469 C 0.679688 -4.382813 0.597656 -4.691406 0.597656 -5.027344 C 0.597656 -5.332031 0.667969 -5.613281 0.808594 -5.875 C 0.949219 -6.132813 1.136719 -6.347656 1.378906 -6.523438 C 1.554688 -6.652344 1.800781 -6.765625 2.117188 -6.859375 C 2.425781 -6.949219 2.761719 -6.996094 3.121094 -7 C 3.65625 -6.996094 4.128906 -6.917969 4.535156 -6.765625 C 4.941406 -6.609375 5.238281 -6.398438 5.433594 -6.136719 C 5.621094 -5.871094 5.753906 -5.519531 5.832031 -5.078125 L 4.699219 -4.925781 C 4.644531 -5.273438 4.492188 -5.546875 4.25 -5.75 C 4 -5.945313 3.652344 -6.046875 3.203125 -6.046875 C 2.667969 -6.046875 2.289063 -5.957031 2.0625 -5.78125 C 1.835938 -5.601563 1.722656 -5.394531 1.722656 -5.164063 C 1.722656 -5.007813 1.769531 -4.875 1.863281 -4.757813 C 1.957031 -4.632813 2.105469 -4.527344 2.308594 -4.445313 C 2.421875 -4.402344 2.761719 -4.304688 3.332031 -4.152344 C 4.148438 -3.929688 4.71875 -3.75 5.046875 -3.609375 C 5.367188 -3.46875 5.625 -3.265625 5.8125 -3.003906 C 5.996094 -2.734375 6.085938 -2.402344 6.089844 -2.011719 C 6.085938 -1.621094 5.972656 -1.257813 5.75 -0.917969 C 5.523438 -0.574219 5.199219 -0.308594 4.773438 -0.125 C 4.347656 0.0625 3.867188 0.152344 3.332031 0.15625 C 2.441406 0.152344 1.761719 -0.03125 1.296875 -0.398438 C 0.828125 -0.765625 0.53125 -1.3125 0.40625 -2.042969 Z M 0.40625 -2.042969 "/>
</symbol>
<symbol overflow="visible" id="glyph3-15">
<path style="stroke:none;" d="M 0.871094 2.625 L 0.871094 -6.84375 L 1.925781 -6.84375 L 1.925781 -5.957031 C 2.171875 -6.300781 2.453125 -6.5625 2.769531 -6.738281 C 3.082031 -6.910156 3.464844 -6.996094 3.914063 -7 C 4.496094 -6.996094 5.007813 -6.84375 5.457031 -6.546875 C 5.902344 -6.242188 6.242188 -5.820313 6.46875 -5.273438 C 6.695313 -4.726563 6.808594 -4.125 6.8125 -3.472656 C 6.808594 -2.769531 6.683594 -2.140625 6.433594 -1.582031 C 6.183594 -1.019531 5.816406 -0.589844 5.339844 -0.292969 C 4.855469 0.00390625 4.351563 0.152344 3.828125 0.15625 C 3.4375 0.152344 3.09375 0.0742188 2.789063 -0.0898438 C 2.480469 -0.25 2.226563 -0.457031 2.03125 -0.710938 L 2.03125 2.625 Z M 1.921875 -3.382813 C 1.921875 -2.5 2.097656 -1.851563 2.457031 -1.429688 C 2.808594 -1.007813 3.242188 -0.796875 3.75 -0.800781 C 4.265625 -0.796875 4.707031 -1.015625 5.074219 -1.453125 C 5.441406 -1.890625 5.625 -2.566406 5.625 -3.480469 C 5.625 -4.351563 5.445313 -5.003906 5.085938 -5.4375 C 4.726563 -5.871094 4.296875 -6.085938 3.804688 -6.089844 C 3.304688 -6.085938 2.867188 -5.855469 2.492188 -5.394531 C 2.109375 -4.929688 1.921875 -4.257813 1.921875 -3.382813 Z M 1.921875 -3.382813 "/>
</symbol>
<symbol overflow="visible" id="glyph3-16">
<path style="stroke:none;" d="M 0.871094 0 L 0.871094 -6.84375 L 1.914063 -6.84375 L 1.914063 -5.871094 C 2.414063 -6.621094 3.140625 -6.996094 4.09375 -7 C 4.503906 -6.996094 4.882813 -6.921875 5.230469 -6.777344 C 5.574219 -6.625 5.832031 -6.429688 6.007813 -6.191406 C 6.175781 -5.949219 6.296875 -5.664063 6.367188 -5.335938 C 6.410156 -5.121094 6.433594 -4.746094 6.433594 -4.207031 L 6.433594 0 L 5.273438 0 L 5.273438 -4.164063 C 5.273438 -4.632813 5.226563 -4.984375 5.136719 -5.222656 C 5.042969 -5.453125 4.882813 -5.640625 4.65625 -5.78125 C 4.425781 -5.917969 4.15625 -5.988281 3.847656 -5.992188 C 3.351563 -5.988281 2.925781 -5.832031 2.566406 -5.523438 C 2.207031 -5.207031 2.027344 -4.613281 2.03125 -3.738281 L 2.03125 0 Z M 0.871094 0 "/>
</symbol>
</g>
<clipPath id="clip1">
  <path d="M 42.773438 228 L 651.519531 228 L 651.519531 229 L 42.773438 229 Z M 42.773438 228 "/>
</clipPath>
<clipPath id="clip2">
  <path d="M 42.773438 161 L 651.519531 161 L 651.519531 163 L 42.773438 163 Z M 42.773438 161 "/>
</clipPath>
<clipPath id="clip3">
  <path d="M 42.773438 95 L 651.519531 95 L 651.519531 96 L 42.773438 96 Z M 42.773438 95 "/>
</clipPath>
<clipPath id="clip4">
  <path d="M 42.773438 28 L 651.519531 28 L 651.519531 29 L 42.773438 29 Z M 42.773438 28 "/>
</clipPath>
<clipPath id="clip5">
  <path d="M 42.773438 261 L 651.519531 261 L 651.519531 263 L 42.773438 263 Z M 42.773438 261 "/>
</clipPath>
<clipPath id="clip6">
  <path d="M 42.773438 194 L 651.519531 194 L 651.519531 196 L 42.773438 196 Z M 42.773438 194 "/>
</clipPath>
<clipPath id="clip7">
  <path d="M 42.773438 128 L 651.519531 128 L 651.519531 130 L 42.773438 130 Z M 42.773438 128 "/>
</clipPath>
<clipPath id="clip8">
  <path d="M 42.773438 61 L 651.519531 61 L 651.519531 63 L 42.773438 63 Z M 42.773438 61 "/>
</clipPath>
<clipPath id="clip9">
  <path d="M 69 23.03125 L 71 23.03125 L 71 273.25 L 69 273.25 Z M 69 23.03125 "/>
</clipPath>
<clipPath id="clip10">
  <path d="M 116 23.03125 L 118 23.03125 L 118 273.25 L 116 273.25 Z M 116 23.03125 "/>
</clipPath>
<clipPath id="clip11">
  <path d="M 162 23.03125 L 164 23.03125 L 164 273.25 L 162 273.25 Z M 162 23.03125 "/>
</clipPath>
<clipPath id="clip12">
  <path d="M 208 23.03125 L 210 23.03125 L 210 273.25 L 208 273.25 Z M 208 23.03125 "/>
</clipPath>
<clipPath id="clip13">
  <path d="M 254 23.03125 L 256 23.03125 L 256 273.25 L 254 273.25 Z M 254 23.03125 "/>
</clipPath>
<clipPath id="clip14">
  <path d="M 300 23.03125 L 302 23.03125 L 302 273.25 L 300 273.25 Z M 300 23.03125 "/>
</clipPath>
<clipPath id="clip15">
  <path d="M 346 23.03125 L 348 23.03125 L 348 273.25 L 346 273.25 Z M 346 23.03125 "/>
</clipPath>
<clipPath id="clip16">
  <path d="M 392 23.03125 L 394 23.03125 L 394 273.25 L 392 273.25 Z M 392 23.03125 "/>
</clipPath>
<clipPath id="clip17">
  <path d="M 438 23.03125 L 440 23.03125 L 440 273.25 L 438 273.25 Z M 438 23.03125 "/>
</clipPath>
<clipPath id="clip18">
  <path d="M 484 23.03125 L 487 23.03125 L 487 273.25 L 484 273.25 Z M 484 23.03125 "/>
</clipPath>
<clipPath id="clip19">
  <path d="M 531 23.03125 L 533 23.03125 L 533 273.25 L 531 273.25 Z M 531 23.03125 "/>
</clipPath>
<clipPath id="clip20">
  <path d="M 577 23.03125 L 579 23.03125 L 579 273.25 L 577 273.25 Z M 577 23.03125 "/>
</clipPath>
<clipPath id="clip21">
  <path d="M 623 23.03125 L 625 23.03125 L 625 273.25 L 623 273.25 Z M 623 23.03125 "/>
</clipPath>
</defs>
<g id="surface64">
<rect x="0" y="0" width="657" height="366" style="fill:rgb(100%,100%,100%);fill-opacity:1;stroke:none;"/>
<rect x="0" y="0" width="657" height="366" style="fill:rgb(100%,100%,100%);fill-opacity:1;stroke:none;"/>
<g clip-path="url(#clip1)" clip-rule="nonzero">
<path style="fill:none;stroke-width:0.533489;stroke-linecap:butt;stroke-linejoin:round;stroke:rgb(92.156863%,92.156863%,92.156863%);stroke-opacity:1;stroke-miterlimit:10;" d="M 42.773438 228.5625 L 651.519531 228.5625 "/>
</g>
<g clip-path="url(#clip2)" clip-rule="nonzero">
<path style="fill:none;stroke-width:0.533489;stroke-linecap:butt;stroke-linejoin:round;stroke:rgb(92.156863%,92.156863%,92.156863%);stroke-opacity:1;stroke-miterlimit:10;" d="M 42.773438 161.933594 L 651.519531 161.933594 "/>
</g>
<g clip-path="url(#clip3)" clip-rule="nonzero">
<path style="fill:none;stroke-width:0.533489;stroke-linecap:butt;stroke-linejoin:round;stroke:rgb(92.156863%,92.156863%,92.156863%);stroke-opacity:1;stroke-miterlimit:10;" d="M 42.773438 95.304688 L 651.519531 95.304688 "/>
</g>
<g clip-path="url(#clip4)" clip-rule="nonzero">
<path style="fill:none;stroke-width:0.533489;stroke-linecap:butt;stroke-linejoin:round;stroke:rgb(92.156863%,92.156863%,92.156863%);stroke-opacity:1;stroke-miterlimit:10;" d="M 42.773438 28.675781 L 651.519531 28.675781 "/>
</g>
<g clip-path="url(#clip5)" clip-rule="nonzero">
<path style="fill:none;stroke-width:1.066978;stroke-linecap:butt;stroke-linejoin:round;stroke:rgb(92.156863%,92.156863%,92.156863%);stroke-opacity:1;stroke-miterlimit:10;" d="M 42.773438 261.878906 L 651.519531 261.878906 "/>
</g>
<g clip-path="url(#clip6)" clip-rule="nonzero">
<path style="fill:none;stroke-width:1.066978;stroke-linecap:butt;stroke-linejoin:round;stroke:rgb(92.156863%,92.156863%,92.156863%);stroke-opacity:1;stroke-miterlimit:10;" d="M 42.773438 195.25 L 651.519531 195.25 "/>
</g>
<g clip-path="url(#clip7)" clip-rule="nonzero">
<path style="fill:none;stroke-width:1.066978;stroke-linecap:butt;stroke-linejoin:round;stroke:rgb(92.156863%,92.156863%,92.156863%);stroke-opacity:1;stroke-miterlimit:10;" d="M 42.773438 128.621094 L 651.519531 128.621094 "/>
</g>
<g clip-path="url(#clip8)" clip-rule="nonzero">
<path style="fill:none;stroke-width:1.066978;stroke-linecap:butt;stroke-linejoin:round;stroke:rgb(92.156863%,92.156863%,92.156863%);stroke-opacity:1;stroke-miterlimit:10;" d="M 42.773438 61.992188 L 651.519531 61.992188 "/>
</g>
<g clip-path="url(#clip9)" clip-rule="nonzero">
<path style="fill:none;stroke-width:1.066978;stroke-linecap:butt;stroke-linejoin:round;stroke:rgb(92.156863%,92.156863%,92.156863%);stroke-opacity:1;stroke-miterlimit:10;" d="M 70.445313 273.253906 L 70.445313 23.03125 "/>
</g>
<g clip-path="url(#clip10)" clip-rule="nonzero">
<path style="fill:none;stroke-width:1.066978;stroke-linecap:butt;stroke-linejoin:round;stroke:rgb(92.156863%,92.156863%,92.156863%);stroke-opacity:1;stroke-miterlimit:10;" d="M 116.5625 273.253906 L 116.5625 23.03125 "/>
</g>
<g clip-path="url(#clip11)" clip-rule="nonzero">
<path style="fill:none;stroke-width:1.066978;stroke-linecap:butt;stroke-linejoin:round;stroke:rgb(92.156863%,92.156863%,92.156863%);stroke-opacity:1;stroke-miterlimit:10;" d="M 162.679688 273.253906 L 162.679688 23.03125 "/>
</g>
<g clip-path="url(#clip12)" clip-rule="nonzero">
<path style="fill:none;stroke-width:1.066978;stroke-linecap:butt;stroke-linejoin:round;stroke:rgb(92.156863%,92.156863%,92.156863%);stroke-opacity:1;stroke-miterlimit:10;" d="M 208.796875 273.253906 L 208.796875 23.03125 "/>
</g>
<g clip-path="url(#clip13)" clip-rule="nonzero">
<path style="fill:none;stroke-width:1.066978;stroke-linecap:butt;stroke-linejoin:round;stroke:rgb(92.156863%,92.156863%,92.156863%);stroke-opacity:1;stroke-miterlimit:10;" d="M 254.914063 273.253906 L 254.914063 23.03125 "/>
</g>
<g clip-path="url(#clip14)" clip-rule="nonzero">
<path style="fill:none;stroke-width:1.066978;stroke-linecap:butt;stroke-linejoin:round;stroke:rgb(92.156863%,92.156863%,92.156863%);stroke-opacity:1;stroke-miterlimit:10;" d="M 301.03125 273.253906 L 301.03125 23.03125 "/>
</g>
<g clip-path="url(#clip15)" clip-rule="nonzero">
<path style="fill:none;stroke-width:1.066978;stroke-linecap:butt;stroke-linejoin:round;stroke:rgb(92.156863%,92.156863%,92.156863%);stroke-opacity:1;stroke-miterlimit:10;" d="M 347.148438 273.253906 L 347.148438 23.03125 "/>
</g>
<g clip-path="url(#clip16)" clip-rule="nonzero">
<path style="fill:none;stroke-width:1.066978;stroke-linecap:butt;stroke-linejoin:round;stroke:rgb(92.156863%,92.156863%,92.156863%);stroke-opacity:1;stroke-miterlimit:10;" d="M 393.265625 273.253906 L 393.265625 23.03125 "/>
</g>
<g clip-path="url(#clip17)" clip-rule="nonzero">
<path style="fill:none;stroke-width:1.066978;stroke-linecap:butt;stroke-linejoin:round;stroke:rgb(92.156863%,92.156863%,92.156863%);stroke-opacity:1;stroke-miterlimit:10;" d="M 439.382813 273.253906 L 439.382813 23.03125 "/>
</g>
<g clip-path="url(#clip18)" clip-rule="nonzero">
<path style="fill:none;stroke-width:1.066978;stroke-linecap:butt;stroke-linejoin:round;stroke:rgb(92.156863%,92.156863%,92.156863%);stroke-opacity:1;stroke-miterlimit:10;" d="M 485.5 273.253906 L 485.5 23.03125 "/>
</g>
<g clip-path="url(#clip19)" clip-rule="nonzero">
<path style="fill:none;stroke-width:1.066978;stroke-linecap:butt;stroke-linejoin:round;stroke:rgb(92.156863%,92.156863%,92.156863%);stroke-opacity:1;stroke-miterlimit:10;" d="M 531.617188 273.253906 L 531.617188 23.03125 "/>
</g>
<g clip-path="url(#clip20)" clip-rule="nonzero">
<path style="fill:none;stroke-width:1.066978;stroke-linecap:butt;stroke-linejoin:round;stroke:rgb(92.156863%,92.156863%,92.156863%);stroke-opacity:1;stroke-miterlimit:10;" d="M 577.734375 273.253906 L 577.734375 23.03125 "/>
</g>
<g clip-path="url(#clip21)" clip-rule="nonzero">
<path style="fill:none;stroke-width:1.066978;stroke-linecap:butt;stroke-linejoin:round;stroke:rgb(92.156863%,92.156863%,92.156863%);stroke-opacity:1;stroke-miterlimit:10;" d="M 623.851563 273.253906 L 623.851563 23.03125 "/>
</g>
<path style=" stroke:none;fill-rule:nonzero;fill:rgb(12.156863%,47.058824%,70.588235%);fill-opacity:1;" d="M 49.691406 261.878906 L 91.195313 261.878906 L 91.195313 34.40625 L 49.691406 34.40625 Z M 49.691406 261.878906 "/>
<path style=" stroke:none;fill-rule:nonzero;fill:rgb(24.705882%,52.156863%,73.72549%);fill-opacity:1;" d="M 95.808594 261.878906 L 137.3125 261.878906 L 137.3125 67.320313 L 95.808594 67.320313 Z M 95.808594 261.878906 "/>
<path style=" stroke:none;fill-rule:nonzero;fill:rgb(37.647059%,60%,78.039216%);fill-opacity:1;" d="M 141.925781 261.878906 L 183.429688 261.878906 L 183.429688 115.429688 L 141.925781 115.429688 Z M 141.925781 261.878906 "/>
<path style=" stroke:none;fill-rule:nonzero;fill:rgb(40.784314%,61.960784%,78.823529%);fill-opacity:1;" d="M 188.042969 261.878906 L 229.546875 261.878906 L 229.546875 128.488281 L 188.042969 128.488281 Z M 188.042969 261.878906 "/>
<path style=" stroke:none;fill-rule:nonzero;fill:rgb(43.921569%,64.313725%,80.392157%);fill-opacity:1;" d="M 234.160156 261.878906 L 275.664063 261.878906 L 275.664063 142.347656 L 234.160156 142.347656 Z M 234.160156 261.878906 "/>
<path style=" stroke:none;fill-rule:nonzero;fill:rgb(45.098039%,65.098039%,80.784314%);fill-opacity:1;" d="M 280.277344 261.878906 L 321.78125 261.878906 L 321.78125 146.476563 L 280.277344 146.476563 Z M 280.277344 261.878906 "/>
<path style=" stroke:none;fill-rule:nonzero;fill:rgb(49.411765%,68.235294%,82.352941%);fill-opacity:1;" d="M 326.394531 261.878906 L 367.898438 261.878906 L 367.898438 167.398438 L 326.394531 167.398438 Z M 326.394531 261.878906 "/>
<path style=" stroke:none;fill-rule:nonzero;fill:rgb(49.803922%,68.627451%,82.745098%);fill-opacity:1;" d="M 372.511719 261.878906 L 414.015625 261.878906 L 414.015625 169.265625 L 372.511719 169.265625 Z M 372.511719 261.878906 "/>
<path style=" stroke:none;fill-rule:nonzero;fill:rgb(51.764706%,70.196078%,83.529412%);fill-opacity:1;" d="M 418.628906 261.878906 L 460.132813 261.878906 L 460.132813 177.394531 L 418.628906 177.394531 Z M 418.628906 261.878906 "/>
<path style=" stroke:none;fill-rule:nonzero;fill:rgb(59.607843%,76.078431%,86.666667%);fill-opacity:1;" d="M 464.746094 261.878906 L 506.25 261.878906 L 506.25 213.371094 L 464.746094 213.371094 Z M 464.746094 261.878906 "/>
<path style=" stroke:none;fill-rule:nonzero;fill:rgb(62.352941%,78.823529%,87.843137%);fill-opacity:1;" d="M 510.863281 261.878906 L 552.367188 261.878906 L 552.367188 228.03125 L 510.863281 228.03125 Z M 510.863281 261.878906 "/>
<path style=" stroke:none;fill-rule:nonzero;fill:rgb(63.137255%,79.215686%,88.235294%);fill-opacity:1;" d="M 556.980469 261.878906 L 598.484375 261.878906 L 598.484375 230.695313 L 556.980469 230.695313 Z M 556.980469 261.878906 "/>
<path style=" stroke:none;fill-rule:nonzero;fill:rgb(65.098039%,80.784314%,89.019608%);fill-opacity:1;" d="M 603.097656 261.878906 L 644.601563 261.878906 L 644.601563 240.425781 L 603.097656 240.425781 Z M 603.097656 261.878906 "/>
<g style="fill:rgb(30.196078%,30.196078%,30.196078%);fill-opacity:1;">
  <use xlink:href="#glyph0-1" x="32.949219" y="265.027344"/>
</g>
<g style="fill:rgb(30.196078%,30.196078%,30.196078%);fill-opacity:1;">
  <use xlink:href="#glyph0-2" x="23.160156" y="198.398438"/>
  <use xlink:href="#glyph0-1" x="28.054297" y="198.398438"/>
  <use xlink:href="#glyph0-1" x="32.948437" y="198.398438"/>
</g>
<g style="fill:rgb(30.196078%,30.196078%,30.196078%);fill-opacity:1;">
  <use xlink:href="#glyph0-3" x="18.265625" y="131.769531"/>
  <use xlink:href="#glyph0-1" x="23.159766" y="131.769531"/>
  <use xlink:href="#glyph0-1" x="28.053906" y="131.769531"/>
  <use xlink:href="#glyph0-1" x="32.948047" y="131.769531"/>
</g>
<g style="fill:rgb(30.196078%,30.196078%,30.196078%);fill-opacity:1;">
  <use xlink:href="#glyph0-3" x="18.265625" y="65.140625"/>
  <use xlink:href="#glyph0-2" x="23.159766" y="65.140625"/>
  <use xlink:href="#glyph0-1" x="28.053906" y="65.140625"/>
  <use xlink:href="#glyph0-1" x="32.948047" y="65.140625"/>
</g>
<g style="fill:rgb(30.196078%,30.196078%,30.196078%);fill-opacity:1;">
  <use xlink:href="#glyph1-1" x="58.988281" y="298.546875"/>
  <use xlink:href="#glyph1-2" x="63.138667" y="294.39649"/>
  <use xlink:href="#glyph1-3" x="66.599347" y="290.93581"/>
  <use xlink:href="#glyph1-4" x="70.060027" y="287.47513"/>
  <use xlink:href="#glyph1-5" x="73.171296" y="284.36386"/>
</g>
<g style="fill:rgb(30.196078%,30.196078%,30.196078%);fill-opacity:1;">
  <use xlink:href="#glyph1-6" x="104.417969" y="299.234375"/>
  <use xlink:href="#glyph1-7" x="108.568354" y="295.08399"/>
  <use xlink:href="#glyph1-8" x="112.029034" y="291.62331"/>
  <use xlink:href="#glyph1-9" x="113.411483" y="290.240861"/>
  <use xlink:href="#glyph1-5" x="114.793932" y="288.858412"/>
  <use xlink:href="#glyph1-9" x="116.522753" y="287.129591"/>
  <use xlink:href="#glyph1-10" x="117.905202" y="285.747142"/>
</g>
<g style="fill:rgb(30.196078%,30.196078%,30.196078%);fill-opacity:1;">
  <use xlink:href="#glyph1-11" x="102.457031" y="347.3125"/>
  <use xlink:href="#glyph1-12" x="106.607417" y="343.162115"/>
  <use xlink:href="#glyph1-13" x="109.718686" y="340.050845"/>
  <use xlink:href="#glyph1-10" x="113.179366" y="336.590165"/>
  <use xlink:href="#glyph1-5" x="116.290636" y="333.478895"/>
  <use xlink:href="#glyph1-14" x="118.019457" y="331.750074"/>
  <use xlink:href="#glyph1-15" x="121.480137" y="328.289394"/>
  <use xlink:href="#glyph1-16" x="123.208958" y="326.560573"/>
  <use xlink:href="#glyph1-9" x="129.082087" y="320.687444"/>
  <use xlink:href="#glyph1-4" x="130.464536" y="319.304995"/>
  <use xlink:href="#glyph1-4" x="133.575806" y="316.193725"/>
  <use xlink:href="#glyph1-14" x="136.687076" y="313.082455"/>
  <use xlink:href="#glyph1-3" x="140.147756" y="309.621775"/>
  <use xlink:href="#glyph1-4" x="143.608436" y="306.161095"/>
  <use xlink:href="#glyph1-17" x="146.719706" y="303.049825"/>
  <use xlink:href="#glyph1-18" x="149.830976" y="299.938555"/>
  <use xlink:href="#glyph1-13" x="153.291656" y="296.477875"/>
  <use xlink:href="#glyph1-19" x="156.752336" y="293.017195"/>
  <use xlink:href="#glyph1-5" x="158.481157" y="291.288374"/>
  <use xlink:href="#glyph1-14" x="160.209978" y="289.559554"/>
  <use xlink:href="#glyph1-3" x="163.670658" y="286.098874"/>
</g>
<g style="fill:rgb(30.196078%,30.196078%,30.196078%);fill-opacity:1;">
  <use xlink:href="#glyph1-20" x="192.839844" y="303.046875"/>
  <use xlink:href="#glyph1-14" x="198.023268" y="297.863451"/>
  <use xlink:href="#glyph1-21" x="201.483948" y="294.402771"/>
  <use xlink:href="#glyph1-9" x="204.944628" y="290.942091"/>
  <use xlink:href="#glyph1-14" x="206.327077" y="289.559642"/>
  <use xlink:href="#glyph1-3" x="209.787757" y="286.098962"/>
</g>
<g style="fill:rgb(30.196078%,30.196078%,30.196078%);fill-opacity:1;">
  <use xlink:href="#glyph1-22" x="195.730469" y="346.273438"/>
  <use xlink:href="#glyph1-14" x="200.570559" y="341.433347"/>
  <use xlink:href="#glyph1-9" x="204.031239" y="337.972667"/>
  <use xlink:href="#glyph1-4" x="205.413688" y="336.590218"/>
  <use xlink:href="#glyph1-5" x="208.524958" y="333.478948"/>
  <use xlink:href="#glyph1-14" x="210.253779" y="331.750127"/>
  <use xlink:href="#glyph1-4" x="213.714459" y="328.289447"/>
  <use xlink:href="#glyph1-23" x="216.825729" y="325.178177"/>
  <use xlink:href="#glyph1-9" x="221.319448" y="320.684458"/>
  <use xlink:href="#glyph1-4" x="222.701897" y="319.302009"/>
  <use xlink:href="#glyph1-4" x="225.813167" y="316.19074"/>
  <use xlink:href="#glyph1-14" x="228.924436" y="313.07947"/>
  <use xlink:href="#glyph1-3" x="232.385117" y="309.61879"/>
  <use xlink:href="#glyph1-4" x="235.845797" y="306.15811"/>
  <use xlink:href="#glyph1-17" x="238.957066" y="303.04684"/>
  <use xlink:href="#glyph1-18" x="242.068336" y="299.93557"/>
  <use xlink:href="#glyph1-13" x="245.529016" y="296.47489"/>
  <use xlink:href="#glyph1-19" x="248.989696" y="293.01421"/>
  <use xlink:href="#glyph1-5" x="250.718517" y="291.285389"/>
  <use xlink:href="#glyph1-14" x="252.447338" y="289.556568"/>
  <use xlink:href="#glyph1-3" x="255.908018" y="286.095888"/>
</g>
<g style="fill:rgb(30.196078%,30.196078%,30.196078%);fill-opacity:1;">
  <use xlink:href="#glyph1-24" x="245.992188" y="342.128906"/>
  <use xlink:href="#glyph1-7" x="250.142573" y="337.978521"/>
  <use xlink:href="#glyph1-25" x="253.603253" y="334.517841"/>
  <use xlink:href="#glyph1-9" x="256.714523" y="331.406571"/>
  <use xlink:href="#glyph1-13" x="258.096972" y="330.024122"/>
  <use xlink:href="#glyph1-8" x="261.557652" y="326.563442"/>
  <use xlink:href="#glyph1-23" x="262.940101" y="325.180993"/>
  <use xlink:href="#glyph1-9" x="267.43382" y="320.687274"/>
  <use xlink:href="#glyph1-4" x="268.816269" y="319.304825"/>
  <use xlink:href="#glyph1-4" x="271.927538" y="316.193555"/>
  <use xlink:href="#glyph1-14" x="275.038808" y="313.082286"/>
  <use xlink:href="#glyph1-3" x="278.499488" y="309.621605"/>
  <use xlink:href="#glyph1-4" x="281.960168" y="306.160925"/>
  <use xlink:href="#glyph1-17" x="285.071438" y="303.049656"/>
  <use xlink:href="#glyph1-18" x="288.182708" y="299.938386"/>
  <use xlink:href="#glyph1-13" x="291.643388" y="296.477706"/>
  <use xlink:href="#glyph1-19" x="295.104068" y="293.017026"/>
  <use xlink:href="#glyph1-5" x="296.832889" y="291.288205"/>
  <use xlink:href="#glyph1-14" x="298.56171" y="289.559384"/>
  <use xlink:href="#glyph1-3" x="302.02239" y="286.098704"/>
</g>
<g style="fill:rgb(30.196078%,30.196078%,30.196078%);fill-opacity:1;">
  <use xlink:href="#glyph1-20" x="330.160156" y="304.078125"/>
  <use xlink:href="#glyph1-14" x="335.34358" y="298.894701"/>
  <use xlink:href="#glyph1-21" x="338.80426" y="295.434021"/>
  <use xlink:href="#glyph1-9" x="342.26494" y="291.973341"/>
  <use xlink:href="#glyph1-25" x="343.647389" y="290.590892"/>
  <use xlink:href="#glyph1-9" x="346.758659" y="287.479622"/>
  <use xlink:href="#glyph1-3" x="348.141108" y="286.097173"/>
</g>
<g style="fill:rgb(30.196078%,30.196078%,30.196078%);fill-opacity:1;">
  <use xlink:href="#glyph1-24" x="363.472656" y="316.882813"/>
  <use xlink:href="#glyph1-5" x="367.623042" y="312.732427"/>
  <use xlink:href="#glyph1-13" x="369.351862" y="311.003606"/>
  <use xlink:href="#glyph1-13" x="372.812542" y="307.542926"/>
  <use xlink:href="#glyph1-5" x="376.273222" y="304.082246"/>
  <use xlink:href="#glyph1-4" x="378.002043" y="302.353425"/>
  <use xlink:href="#glyph1-21" x="381.113313" y="299.242156"/>
  <use xlink:href="#glyph1-9" x="384.573993" y="295.781476"/>
  <use xlink:href="#glyph1-14" x="385.956442" y="294.399027"/>
  <use xlink:href="#glyph1-3" x="389.417122" y="290.938347"/>
  <use xlink:href="#glyph1-4" x="392.877802" y="287.477667"/>
  <use xlink:href="#glyph1-5" x="395.989072" y="284.366397"/>
</g>
<g style="fill:rgb(30.196078%,30.196078%,30.196078%);fill-opacity:1;">
  <use xlink:href="#glyph1-16" x="416.179688" y="310.292969"/>
  <use xlink:href="#glyph1-9" x="422.052817" y="304.419839"/>
  <use xlink:href="#glyph1-26" x="423.435266" y="303.03739"/>
  <use xlink:href="#glyph1-5" x="425.50742" y="300.965236"/>
  <use xlink:href="#glyph1-4" x="427.236241" y="299.236415"/>
  <use xlink:href="#glyph1-17" x="430.347511" y="296.125145"/>
  <use xlink:href="#glyph1-18" x="433.458781" y="293.013875"/>
  <use xlink:href="#glyph1-13" x="436.919461" y="289.553195"/>
  <use xlink:href="#glyph1-19" x="440.380141" y="286.092515"/>
  <use xlink:href="#glyph1-5" x="442.108962" y="284.363695"/>
</g>
<g style="fill:rgb(30.196078%,30.196078%,30.196078%);fill-opacity:1;">
  <use xlink:href="#glyph1-24" x="427.347656" y="345.242188"/>
  <use xlink:href="#glyph1-7" x="431.498042" y="341.091802"/>
  <use xlink:href="#glyph1-25" x="434.958722" y="337.631122"/>
  <use xlink:href="#glyph1-9" x="438.069991" y="334.519852"/>
  <use xlink:href="#glyph1-13" x="439.45244" y="333.137403"/>
  <use xlink:href="#glyph1-8" x="442.91312" y="329.676723"/>
  <use xlink:href="#glyph1-27" x="444.295569" y="328.294274"/>
  <use xlink:href="#glyph1-28" x="446.367724" y="326.22212"/>
  <use xlink:href="#glyph1-29" x="448.096545" y="324.493299"/>
  <use xlink:href="#glyph1-9" x="452.24693" y="320.342914"/>
  <use xlink:href="#glyph1-8" x="453.629379" y="318.960465"/>
  <use xlink:href="#glyph1-21" x="455.011828" y="317.578016"/>
  <use xlink:href="#glyph1-2" x="458.472508" y="314.117336"/>
  <use xlink:href="#glyph1-3" x="461.933188" y="310.656656"/>
  <use xlink:href="#glyph1-30" x="465.393868" y="307.195976"/>
  <use xlink:href="#glyph1-4" x="468.854548" y="303.735296"/>
  <use xlink:href="#glyph1-23" x="471.965818" y="300.624026"/>
  <use xlink:href="#glyph1-14" x="476.459537" y="296.130307"/>
  <use xlink:href="#glyph1-4" x="479.920217" y="292.669627"/>
  <use xlink:href="#glyph1-14" x="483.031487" y="289.558357"/>
  <use xlink:href="#glyph1-3" x="486.492167" y="286.097677"/>
</g>
<g style="fill:rgb(30.196078%,30.196078%,30.196078%);fill-opacity:1;">
  <use xlink:href="#glyph1-22" x="508.75" y="309.957031"/>
  <use xlink:href="#glyph1-14" x="513.590091" y="305.116941"/>
  <use xlink:href="#glyph1-9" x="517.050771" y="301.656261"/>
  <use xlink:href="#glyph1-4" x="518.43322" y="300.273812"/>
  <use xlink:href="#glyph1-5" x="521.54449" y="297.162542"/>
  <use xlink:href="#glyph1-8" x="523.27331" y="295.433721"/>
  <use xlink:href="#glyph1-9" x="524.655759" y="294.051272"/>
  <use xlink:href="#glyph1-17" x="526.038208" y="292.668823"/>
  <use xlink:href="#glyph1-18" x="529.149478" y="289.557553"/>
  <use xlink:href="#glyph1-14" x="532.610158" y="286.096873"/>
</g>
<g style="fill:rgb(30.196078%,30.196078%,30.196078%);fill-opacity:1;">
  <use xlink:href="#glyph1-31" x="560.398438" y="304.425781"/>
  <use xlink:href="#glyph1-14" x="564.199413" y="300.624806"/>
  <use xlink:href="#glyph1-17" x="567.660093" y="297.164126"/>
  <use xlink:href="#glyph1-18" x="570.771363" y="294.052856"/>
  <use xlink:href="#glyph1-3" x="574.232043" y="290.592176"/>
  <use xlink:href="#glyph1-9" x="577.692723" y="287.131496"/>
  <use xlink:href="#glyph1-10" x="579.075172" y="285.749047"/>
</g>
<g style="fill:rgb(30.196078%,30.196078%,30.196078%);fill-opacity:1;">
  <use xlink:href="#glyph1-24" x="604.089844" y="306.851563"/>
  <use xlink:href="#glyph1-7" x="608.240229" y="302.701177"/>
  <use xlink:href="#glyph1-3" x="611.700909" y="299.240497"/>
  <use xlink:href="#glyph1-4" x="615.161589" y="295.779817"/>
  <use xlink:href="#glyph1-5" x="618.272859" y="292.668547"/>
  <use xlink:href="#glyph1-9" x="620.00168" y="290.939726"/>
  <use xlink:href="#glyph1-30" x="621.384129" y="289.557277"/>
  <use xlink:href="#glyph1-14" x="624.844809" y="286.096597"/>
</g>
<g style="fill:rgb(0%,0%,0%);fill-opacity:1;">
  <use xlink:href="#glyph2-1" x="13.351563" y="190.03125"/>
  <use xlink:href="#glyph2-2" x="13.351563" y="182.694336"/>
  <use xlink:href="#glyph2-3" x="13.351563" y="176.57666"/>
  <use xlink:href="#glyph2-4" x="13.351563" y="171.07666"/>
  <use xlink:href="#glyph2-5" x="13.351563" y="164.958984"/>
  <use xlink:href="#glyph2-6" x="13.351563" y="158.841309"/>
  <use xlink:href="#glyph2-7" x="13.351563" y="156.397461"/>
  <use xlink:href="#glyph2-8" x="13.351563" y="153.341309"/>
  <use xlink:href="#glyph2-9" x="13.351563" y="146.004395"/>
  <use xlink:href="#glyph2-10" x="13.351563" y="139.886719"/>
  <use xlink:href="#glyph2-11" x="13.351563" y="136.223633"/>
  <use xlink:href="#glyph2-12" x="13.351563" y="130.723633"/>
  <use xlink:href="#glyph2-2" x="13.351563" y="124.605957"/>
  <use xlink:href="#glyph2-9" x="13.351563" y="118.488281"/>
  <use xlink:href="#glyph2-2" x="13.351563" y="112.370605"/>
</g>
<g style="fill:rgb(0%,0%,0%);fill-opacity:1;">
  <use xlink:href="#glyph3-1" x="42.773438" y="14.929688"/>
  <use xlink:href="#glyph3-2" x="52.306055" y="14.929688"/>
  <use xlink:href="#glyph3-3" x="59.647266" y="14.929688"/>
  <use xlink:href="#glyph3-4" x="66.988477" y="14.929688"/>
  <use xlink:href="#glyph3-5" x="70.655859" y="14.929688"/>
  <use xlink:href="#glyph3-6" x="73.588477" y="14.929688"/>
  <use xlink:href="#glyph3-7" x="80.929687" y="14.929688"/>
  <use xlink:href="#glyph3-8" x="87.529687" y="14.929688"/>
  <use xlink:href="#glyph3-5" x="94.870898" y="14.929688"/>
  <use xlink:href="#glyph3-9" x="97.803516" y="14.929688"/>
  <use xlink:href="#glyph3-10" x="101.470898" y="14.929688"/>
  <use xlink:href="#glyph3-11" x="105.138281" y="14.929688"/>
  <use xlink:href="#glyph3-8" x="112.479492" y="14.929688"/>
  <use xlink:href="#glyph3-12" x="119.820703" y="14.929688"/>
  <use xlink:href="#glyph3-10" x="124.216406" y="14.929688"/>
  <use xlink:href="#glyph3-13" x="127.883789" y="14.929688"/>
  <use xlink:href="#glyph3-8" x="136.688086" y="14.929688"/>
  <use xlink:href="#glyph3-12" x="144.029297" y="14.929688"/>
  <use xlink:href="#glyph3-3" x="148.425" y="14.929688"/>
  <use xlink:href="#glyph3-4" x="155.766211" y="14.929688"/>
  <use xlink:href="#glyph3-14" x="159.433594" y="14.929688"/>
  <use xlink:href="#glyph3-6" x="166.033594" y="14.929688"/>
  <use xlink:href="#glyph3-12" x="173.374805" y="14.929688"/>
  <use xlink:href="#glyph3-3" x="177.770508" y="14.929688"/>
  <use xlink:href="#glyph3-15" x="185.111719" y="14.929688"/>
  <use xlink:href="#glyph3-15" x="192.45293" y="14.929688"/>
  <use xlink:href="#glyph3-8" x="199.794141" y="14.929688"/>
  <use xlink:href="#glyph3-16" x="207.135352" y="14.929688"/>
</g>
</g>
</svg>
